<mxfile host="app.diagrams.net" modified="2021-01-14T08:17:34.085Z" agent="5.0 (Windows)" etag="MSizTvi6sXNsJj8oPs7y" version="13.11.0" type="github">
  <diagram name="Page-1" id="e3a06f82-3646-2815-327d-82caf3d4e204">
    <mxGraphModel dx="2370" dy="1282" grid="1" gridSize="10" guides="1" tooltips="1" connect="1" arrows="1" fold="1" page="1" pageScale="1.5" pageWidth="1169" pageHeight="827" background="none" math="0" shadow="0">
      <root>
        <mxCell id="0" style=";html=1;" />
        <mxCell id="1" style=";html=1;" parent="0" />
        <mxCell id="8cuVBeNiY9Bw5ADYlNcY-5" style="edgeStyle=orthogonalEdgeStyle;rounded=0;orthogonalLoop=1;jettySize=auto;html=1;exitX=0.5;exitY=0;exitDx=0;exitDy=0;entryX=0.5;entryY=1;entryDx=0;entryDy=0;strokeWidth=5;fontStyle=1;fontSize=15;" edge="1" parent="1" source="wtm1ySMwc9PC7Cmq1RKc-62" target="p6RBwhQNt-7Z39dhlTQw-77">
          <mxGeometry relative="1" as="geometry" />
        </mxCell>
        <mxCell id="wtm1ySMwc9PC7Cmq1RKc-62" value="手游发行平台" style="points=[[0,0],[0.25,0],[0.5,0],[0.75,0],[1,0],[1,0.25],[1,0.5],[1,0.75],[1,1],[0.75,1],[0.5,1],[0.25,1],[0,1],[0,0.75],[0,0.5],[0,0.25]];outlineConnect=0;html=1;whiteSpace=wrap;fontSize=15;fontStyle=1;shape=mxgraph.aws4.group;grIcon=mxgraph.aws4.group_vpc;strokeColor=#82b366;fillColor=#d5e8d4;verticalAlign=top;align=left;spacingLeft=30;dashed=0;labelBackgroundColor=none;" parent="1" vertex="1">
          <mxGeometry x="460" y="370" width="1120" height="640" as="geometry" />
        </mxCell>
        <mxCell id="xIOn1DT5dU4AWs0Y2ffb-6" value="SLB" style="whiteSpace=wrap;html=1;verticalAlign=top;align=left;strokeColor=#AC49D0;fillColor=#7EA6E0;fontStyle=1;fontSize=15;" parent="1" vertex="1">
          <mxGeometry x="500" y="400" width="130" height="590" as="geometry" />
        </mxCell>
        <mxCell id="wtm1ySMwc9PC7Cmq1RKc-27" style="edgeStyle=orthogonalEdgeStyle;rounded=0;orthogonalLoop=1;jettySize=auto;html=1;entryX=0;entryY=0.291;entryDx=0;entryDy=0;entryPerimeter=0;strokeWidth=5;fontStyle=1;fontSize=15;" parent="1" source="xIOn1DT5dU4AWs0Y2ffb-8" target="xIOn1DT5dU4AWs0Y2ffb-6" edge="1">
          <mxGeometry relative="1" as="geometry" />
        </mxCell>
        <mxCell id="xIOn1DT5dU4AWs0Y2ffb-8" value="CDN" style="shape=image;verticalLabelPosition=bottom;labelBackgroundColor=#ffffff;verticalAlign=top;aspect=fixed;imageAspect=0;image=data:image/svg+xml,PHN2ZyB4bWxuczpjYz0iaHR0cDovL2NyZWF0aXZlY29tbW9ucy5vcmcvbnMjIiB4bWxuczpkYz0iaHR0cDovL3B1cmwub3JnL2RjL2VsZW1lbnRzLzEuMS8iIHhtbG5zOmlua3NjYXBlPSJodHRwOi8vd3d3Lmlua3NjYXBlLm9yZy9uYW1lc3BhY2VzL2lua3NjYXBlIiB4bWxuczpyZGY9Imh0dHA6Ly93d3cudzMub3JnLzE5OTkvMDIvMjItcmRmLXN5bnRheC1ucyMiIHhtbG5zOnNvZGlwb2RpPSJodHRwOi8vc29kaXBvZGkuc291cmNlZm9yZ2UubmV0L0RURC9zb2RpcG9kaS0wLmR0ZCIgeG1sbnM6c3ZnPSJodHRwOi8vd3d3LnczLm9yZy8yMDAwL3N2ZyIgeG1sbnM9Imh0dHA6Ly93d3cudzMub3JnLzIwMDAvc3ZnIiB4bWxuczp4bGluaz0iaHR0cDovL3d3dy53My5vcmcvMTk5OS94bGluayIgdmVyc2lvbj0iMS4xIiBpZD0ic3ZnNjI4NDMiIGlua3NjYXBlOnZlcnNpb249IjAuOTIuMyAoMjQwNTU0NiwgMjAxOC0wMy0xMSkiIHNvZGlwb2RpOmRvY25hbWU9ImNsb3VkLnN2ZyIgeD0iMHB4IiB5PSIwcHgiIHZpZXdCb3g9IjAgMCAzNy4zNCAyNS43MyIgc3R5bGU9ImVuYWJsZS1iYWNrZ3JvdW5kOm5ldyAwIDAgMzcuMzQgMjUuNzM7IiB4bWw6c3BhY2U9InByZXNlcnZlIj4mI3hhOzxzb2RpcG9kaTpuYW1lZHZpZXcgYm9yZGVyY29sb3I9IiM2NjY2NjYiIGJvcmRlcm9wYWNpdHk9IjEiIGZpdC1tYXJnaW4tYm90dG9tPSIwIiBmaXQtbWFyZ2luLWxlZnQ9IjAiIGZpdC1tYXJnaW4tcmlnaHQ9IjAiIGZpdC1tYXJnaW4tdG9wPSIwIiBncmlkdG9sZXJhbmNlPSIxMCIgZ3VpZGV0b2xlcmFuY2U9IjEwIiBpZD0ibmFtZWR2aWV3NjI4NDUiIGlua3NjYXBlOmN1cnJlbnQtbGF5ZXI9InN2ZzYyODQzIiBpbmtzY2FwZTpjeD0iMjQuODk0NzMyIiBpbmtzY2FwZTpjeT0iMTcuMTUxMDg3IiBpbmtzY2FwZTpwYWdlb3BhY2l0eT0iMCIgaW5rc2NhcGU6cGFnZXNoYWRvdz0iMiIgaW5rc2NhcGU6d2luZG93LWhlaWdodD0iMTAxNyIgaW5rc2NhcGU6d2luZG93LW1heGltaXplZD0iMSIgaW5rc2NhcGU6d2luZG93LXdpZHRoPSIxOTIwIiBpbmtzY2FwZTp3aW5kb3cteD0iLTgiIGlua3NjYXBlOndpbmRvdy15PSItOCIgaW5rc2NhcGU6em9vbT0iMjUuMjY4ODgzIiBvYmplY3R0b2xlcmFuY2U9IjEwIiBwYWdlY29sb3I9IiNmZmZmZmYiIHNob3dncmlkPSJmYWxzZSI+JiN4YTsJPC9zb2RpcG9kaTpuYW1lZHZpZXc+JiN4YTs8ZyBpZD0iZzYyODQxIiB0cmFuc2Zvcm09InRyYW5zbGF0ZSgtNi4zMzc1MDQzZS01KSI+JiN4YTsJPHRpdGxlIGlkPSJ0aXRsZTYyODM0Ij5QYWdlLTE8L3RpdGxlPiYjeGE7CTxnIGlkPSJzaGFwZTU0MjktMSI+JiN4YTsJCTx0aXRsZSBpZD0idGl0bGU2MjgzNiI+Q2xvdWQ8L3RpdGxlPiYjeGE7CQk8cGF0aCBpZD0icGF0aDYyODM4IiBpbmtzY2FwZTpjb25uZWN0b3ItY3VydmF0dXJlPSIwIiBzdHlsZT0iZmlsbDojM0Y1NzY1OyIgZD0iTTguMTksMjUuNzNjMTkuMjQsMCwxOS4yNCwwLDE5LjI0LDAgICAgYzUuNTUsMCw5LjkxLTQuMzYsOS45MS05LjkxYzAtNS4yOS00LjA1LTkuNjUtOS4zMy05Ljk2QzI2LjI4LDIuMzcsMjIuNzYsMCwxOC42NywwQzEzLjQzLDAsOC43Niw0LjEsOC4xOSw5LjM4bDAsMCAgICBDMy44Myw5LjM4LDAsMTMuMTcsMCwxNy41OEMwLDIyLjI1LDMuODMsMjUuNzMsOC4xOSwyNS43M3ogTTguMTksMTEuNzJjMC4zLDAsMC41NywwLDAuODgsMC4zYzEuNDUsMCwxLjQ1LDAsMS40NSwwICAgIGMwLTEuNDksMC0xLjQ5LDAtMS40OWMwLTQuMzYsMy43OS04LjE2LDguMTUtOC4xNmMzLjUyLDAsNi40MywyLjAzLDcuNjEsNS4yNWMwLjI3LDAuNTcsMC4yNywwLjU3LDAuMjcsMC41NyAgICBjMC44OCwwLDAuODgsMCwwLjg4LDBjNC4xLDAsNy41OCwzLjUzLDcuNTgsNy42M2MwLDQuMzYtMy40OCw3LjU4LTcuNTgsNy41OGMtMTkuMjQsMC0xOS4yNCwwLTE5LjI0LDAgICAgYy0zLjIyLDAtNS44Ni0yLjYxLTUuODYtNS44MkMyLjMzLDE0LjM2LDQuOTcsMTEuNzIsOC4xOSwxMS43MnoiLz4mI3hhOwk8L2c+JiN4YTs8L2c+JiN4YTs8L3N2Zz4=;fontStyle=1;fontSize=15;" parent="1" vertex="1">
          <mxGeometry x="331.84000000000003" y="450" width="71.15" height="50" as="geometry" />
        </mxCell>
        <mxCell id="wtm1ySMwc9PC7Cmq1RKc-28" style="edgeStyle=orthogonalEdgeStyle;rounded=0;orthogonalLoop=1;jettySize=auto;html=1;strokeWidth=5;fontStyle=1;fontSize=15;" parent="1" source="xIOn1DT5dU4AWs0Y2ffb-10" target="xIOn1DT5dU4AWs0Y2ffb-6" edge="1">
          <mxGeometry relative="1" as="geometry" />
        </mxCell>
        <mxCell id="xIOn1DT5dU4AWs0Y2ffb-10" value="高防DDOS" style="shape=image;verticalLabelPosition=bottom;labelBackgroundColor=#ffffff;verticalAlign=top;aspect=fixed;imageAspect=0;image=data:image/svg+xml,PHN2ZyB4bWxuczpjYz0iaHR0cDovL2NyZWF0aXZlY29tbW9ucy5vcmcvbnMjIiB4bWxuczpkYz0iaHR0cDovL3B1cmwub3JnL2RjL2VsZW1lbnRzLzEuMS8iIHhtbG5zOmlua3NjYXBlPSJodHRwOi8vd3d3Lmlua3NjYXBlLm9yZy9uYW1lc3BhY2VzL2lua3NjYXBlIiB4bWxuczpyZGY9Imh0dHA6Ly93d3cudzMub3JnLzE5OTkvMDIvMjItcmRmLXN5bnRheC1ucyMiIHhtbG5zOnNvZGlwb2RpPSJodHRwOi8vc29kaXBvZGkuc291cmNlZm9yZ2UubmV0L0RURC9zb2RpcG9kaS0wLmR0ZCIgeG1sbnM6c3ZnPSJodHRwOi8vd3d3LnczLm9yZy8yMDAwL3N2ZyIgeG1sbnM9Imh0dHA6Ly93d3cudzMub3JnLzIwMDAvc3ZnIiB4bWxuczp4bGluaz0iaHR0cDovL3d3dy53My5vcmcvMTk5OS94bGluayIgdmVyc2lvbj0iMS4xIiBpZD0ic3ZnNDM5ODQiIGlua3NjYXBlOnZlcnNpb249IjAuOTIuMyAoMjQwNTU0NiwgMjAxOC0wMy0xMSkiIHNvZGlwb2RpOmRvY25hbWU9ImNsb3VkLnN2ZyIgeD0iMHB4IiB5PSIwcHgiIHZpZXdCb3g9IjAgMCA4NS41NCA0My4xIiBzdHlsZT0iZW5hYmxlLWJhY2tncm91bmQ6bmV3IDAgMCA4NS41NCA0My4xOyIgeG1sOnNwYWNlPSJwcmVzZXJ2ZSI+JiN4YTs8c29kaXBvZGk6bmFtZWR2aWV3IGJvcmRlcmNvbG9yPSIjNjY2NjY2IiBib3JkZXJvcGFjaXR5PSIxIiBmaXQtbWFyZ2luLWJvdHRvbT0iMCIgZml0LW1hcmdpbi1sZWZ0PSIwIiBmaXQtbWFyZ2luLXJpZ2h0PSIwIiBmaXQtbWFyZ2luLXRvcD0iMCIgZ3JpZHRvbGVyYW5jZT0iMTAiIGd1aWRldG9sZXJhbmNlPSIxMCIgaWQ9Im5hbWVkdmlldzQzOTg2IiBpbmtzY2FwZTpjdXJyZW50LWxheWVyPSJzdmc0Mzk4NCIgaW5rc2NhcGU6Y3g9IjQyLjgyODY2NCIgaW5rc2NhcGU6Y3k9IjMwLjkyMDQ4NiIgaW5rc2NhcGU6cGFnZW9wYWNpdHk9IjAiIGlua3NjYXBlOnBhZ2VzaGFkb3c9IjIiIGlua3NjYXBlOndpbmRvdy1oZWlnaHQ9IjEwMTciIGlua3NjYXBlOndpbmRvdy1tYXhpbWl6ZWQ9IjEiIGlua3NjYXBlOndpbmRvdy13aWR0aD0iMTkyMCIgaW5rc2NhcGU6d2luZG93LXg9Ii04IiBpbmtzY2FwZTp3aW5kb3cteT0iLTgiIGlua3NjYXBlOnpvb209IjguNzc5MzQ3NiIgb2JqZWN0dG9sZXJhbmNlPSIxMCIgcGFnZWNvbG9yPSIjZmZmZmZmIiBzaG93Z3JpZD0iZmFsc2UiPiYjeGE7CTwvc29kaXBvZGk6bmFtZWR2aWV3PiYjeGE7PGcgaWQ9Imc0Mzk4MiIgdHJhbnNmb3JtPSJ0cmFuc2xhdGUoLTAuNzUwMTIzMzksLTAuNzUpIj4mI3hhOwk8dGl0bGUgaWQ9InRpdGxlNDM5NjIiPlBhZ2UtMTwvdGl0bGU+JiN4YTsJPGcgaWQ9Imdyb3VwNDgwNS0xIiB0cmFuc2Zvcm09InRyYW5zbGF0ZSgwLjc1MDcwMywtMC43NSkiPiYjeGE7CQk8dGl0bGUgaWQ9InRpdGxlNDM5NjQiPkNsb3VkPC90aXRsZT4mI3hhOwkJPGcgaWQ9InNoYXBlNDgwNi0yIiB0cmFuc2Zvcm09InRyYW5zbGF0ZSg0Mi4wNiwtNS4yNzI1KSI+JiN4YTsJCQk8dGl0bGUgaWQ9InRpdGxlNDM5NjYiPnBhdGgzMjQ0PC90aXRsZT4mI3hhOwkJCSYjeGE7CQkJCTxwYXRoIGlkPSJwYXRoNDM5NjgiIGlua3NjYXBlOmNvbm5lY3Rvci1jdXJ2YXR1cmU9IjAiIHN0eWxlPSJmaWxsOiNGRkZGRkY7c3Ryb2tlOiMwMEJDRjI7c3Ryb2tlLXdpZHRoOjEuNTtzdHJva2UtbWl0ZXJsaW1pdDozOyIgZD0iICAgICBNMzYuNywyMS41MnYtMC4yM2MwLTAuNzYtMC4xMS0xLjUyLTAuMy0yLjI1Yy0wLjI0LTQuNDYtNC4wNS03Ljg4LTguNTEtNy42NGMtMS43NiwwLjEtMy40NCwwLjc2LTQuNzgsMS45ICAgICBjLTEuODQtMi40My00Ljc1LTMuOC03LjgtMy42OWMtNS45MSwwLTEwLjM4LDUuMTYtMTAuNSwxMC45OGMwLDAuNDEsMC4xLDAuNzEsMC4xLDEuMTFDMS44LDIzLjIsMCwyNS44MSwwLDI5LjEyICAgICBjMC4wNSw0Ljc4LDMuODYsOC42Niw4LjY0LDguOGMwLjQ1LDMuMjgsMy40LDYuMzQsOC40NCw2LjM0YzQuMjYsMCw2LjgsMC4zNCw5LjktMy4xNWMxLjUxLDAuODUsMy4yMSwxLjMyLDQuOTUsMS4zNSAgICAgYzYsMCwxMC44LTUuMjUsMTAuOC0xMS4yNUM0Mi43MywyNy4wOSw0MC4zOSwyMy4zNCwzNi43LDIxLjUyeiIvPiYjeGE7CQk8L2c+JiN4YTsJCTxnIGlkPSJzaGFwZTQ4MDctNCI+JiN4YTsJCQk8dGl0bGUgaWQ9InRpdGxlNDM5NzEiPnBhdGgzMjQ2PC90aXRsZT4mI3hhOwkJCTxwYXRoIGlkPSJwYXRoNDM5NzMiIGlua3NjYXBlOmNvbm5lY3Rvci1jdXJ2YXR1cmU9IjAiIHN0eWxlPSJmaWxsOiMyQkM3RjQ7IiBkPSJNNzUsMzMuNjVjMCw2LjA1LTQuNCwxMC45NS05LjgzLDEwLjk1SDkuODMgICAgIEM0LjIyLDQzLjMzLDAsMzcuNTQsMCwzMC45MWMtMC4wMi0xLjYzLDAuMjQtMy4yNiwwLjc1LTQuODFjMC4yMi0wLjY4LDAuNS0xLjM0LDAuODMtMS45N2MxLjk1LTQuMDcsNS45OS02LjcyLDEwLjUtNi44OSAgICAgYzAuMjktMi4yNywwLjk3LTQuNDcsMi4wMi02LjVjMC4yNy0wLjUyLDAuNTUtMS4wMiwwLjg2LTEuNWMzLTQuNjgsNy45Mi03LjczLDEzLjUtNy43M2M4LjE0LDAsMTQuOSw2LjU1LDE2LjI3LDE1LjE3ICAgICBjMS45NS0xLjg1LDQuNTMtMi44OCw3LjIxLTIuOWM1LjIsMCw5LjU3LDMuOTMsMTAuODYsOS4yN2MwLjc2LTAuMjIsMS41NS0wLjMzLDIuMzQtMC4zM0M3MC42LDIyLjcsNzUsMjcuNTgsNzUsMzMuNjV6Ii8+JiN4YTsJCTwvZz4mI3hhOwkJPGcgaWQ9InNoYXBlNDgwOC02IiB0cmFuc2Zvcm09InRyYW5zbGF0ZSgxNS4wMTUpIj4mI3hhOwkJCTx0aXRsZSBpZD0idGl0bGU0Mzk3NiI+cGF0aDMyNDg8L3RpdGxlPiYjeGE7CQkJPHBhdGggaWQ9InBhdGg0Mzk3OCIgaW5rc2NhcGU6Y29ubmVjdG9yLWN1cnZhdHVyZT0iMCIgc3R5bGU9ImZpbGw6IzU1RDJGNjsiIGQ9Ik01OS45OCwzMy42NWMwLDYuMDUtNC40LDEwLjk1LTkuODMsMTAuOTVIMzUuMzggICAgIEwwLDkuMjNDMyw0LjU1LDcuOTIsMS41LDEzLjUsMS41YzguMTQsMCwxNC44OSw2LjU1LDE2LjI3LDE1LjE3YzEuOTQtMS44NSw0LjUyLTIuODgsNy4yLTIuOWM1LjIxLDAsOS41NywzLjkzLDEwLjg2LDkuMjcgICAgIGMwLjc2LTAuMjIsMS41NS0wLjMzLDIuMzQtMC4zM0M1NS41OCwyMi43LDU5Ljk4LDI3LjU4LDU5Ljk4LDMzLjY1eiIvPiYjeGE7CQk8L2c+JiN4YTsJPC9nPiYjeGE7PC9nPiYjeGE7PC9zdmc+;fontStyle=1;fontSize=15;" parent="1" vertex="1">
          <mxGeometry x="324.42" y="720" width="86" height="43" as="geometry" />
        </mxCell>
        <mxCell id="xIOn1DT5dU4AWs0Y2ffb-20" value="" style="shape=image;verticalLabelPosition=bottom;labelBackgroundColor=#ffffff;verticalAlign=top;aspect=fixed;imageAspect=0;image=data:image/svg+xml,PHN2ZyB4bWxuczpjYz0iaHR0cDovL2NyZWF0aXZlY29tbW9ucy5vcmcvbnMjIiB4bWxuczpkYz0iaHR0cDovL3B1cmwub3JnL2RjL2VsZW1lbnRzLzEuMS8iIHhtbG5zOmlua3NjYXBlPSJodHRwOi8vd3d3Lmlua3NjYXBlLm9yZy9uYW1lc3BhY2VzL2lua3NjYXBlIiB4bWxuczpyZGY9Imh0dHA6Ly93d3cudzMub3JnLzE5OTkvMDIvMjItcmRmLXN5bnRheC1ucyMiIHhtbG5zOnNvZGlwb2RpPSJodHRwOi8vc29kaXBvZGkuc291cmNlZm9yZ2UubmV0L0RURC9zb2RpcG9kaS0wLmR0ZCIgeG1sbnM6c3ZnPSJodHRwOi8vd3d3LnczLm9yZy8yMDAwL3N2ZyIgeG1sbnM9Imh0dHA6Ly93d3cudzMub3JnLzIwMDAvc3ZnIiB4bWxuczp4bGluaz0iaHR0cDovL3d3dy53My5vcmcvMTk5OS94bGluayIgdmVyc2lvbj0iMS4xIiBpZD0ic3ZnNDQyMDQiIGlua3NjYXBlOnZlcnNpb249IjAuOTIuMyAoMjQwNTU0NiwgMjAxOC0wMy0xMSkiIHNvZGlwb2RpOmRvY25hbWU9ImNvbm5lY3Quc3ZnIiB4PSIwcHgiIHk9IjBweCIgdmlld0JveD0iMCAwIDI1LjEzIDI4LjYzIiBzdHlsZT0iZW5hYmxlLWJhY2tncm91bmQ6bmV3IDAgMCAyNS4xMyAyOC42MzsiIHhtbDpzcGFjZT0icHJlc2VydmUiPiYjeGE7PHNvZGlwb2RpOm5hbWVkdmlldyBib3JkZXJjb2xvcj0iIzY2NjY2NiIgYm9yZGVyb3BhY2l0eT0iMSIgZml0LW1hcmdpbi1ib3R0b209IjAiIGZpdC1tYXJnaW4tbGVmdD0iMCIgZml0LW1hcmdpbi1yaWdodD0iMCIgZml0LW1hcmdpbi10b3A9IjAiIGdyaWR0b2xlcmFuY2U9IjEwIiBndWlkZXRvbGVyYW5jZT0iMTAiIGlkPSJuYW1lZHZpZXc0NDIwNiIgaW5rc2NhcGU6Y3VycmVudC1sYXllcj0ic3ZnNDQyMDQiIGlua3NjYXBlOmN4PSItOS4wNzEwMzU4IiBpbmtzY2FwZTpjeT0iLTEwLjM2NTcwMyIgaW5rc2NhcGU6cGFnZW9wYWNpdHk9IjAiIGlua3NjYXBlOnBhZ2VzaGFkb3c9IjIiIGlua3NjYXBlOndpbmRvdy1oZWlnaHQ9IjEwMTciIGlua3NjYXBlOndpbmRvdy1tYXhpbWl6ZWQ9IjEiIGlua3NjYXBlOndpbmRvdy13aWR0aD0iMTkyMCIgaW5rc2NhcGU6d2luZG93LXg9Ii04IiBpbmtzY2FwZTp3aW5kb3cteT0iLTgiIGlua3NjYXBlOnpvb209IjUuNjA4MTYyMyIgb2JqZWN0dG9sZXJhbmNlPSIxMCIgcGFnZWNvbG9yPSIjZmZmZmZmIiBzaG93Z3JpZD0iZmFsc2UiPiYjeGE7CTwvc29kaXBvZGk6bmFtZWR2aWV3PiYjeGE7PGcgaWQ9Imc0NDIwMiIgdHJhbnNmb3JtPSJ0cmFuc2xhdGUoLTAuMTc2MDg3MTMsLTAuMTc5NzI3KSI+JiN4YTsJPHRpdGxlIGlkPSJ0aXRsZTQ0MTgwIj5QYWdlLTE8L3RpdGxlPiYjeGE7CTxnIGlkPSJncm91cDg1MS0xIiB0cmFuc2Zvcm09InRyYW5zbGF0ZSgwLjE3NjA3MiwtMC4xODA5NzMpIj4mI3hhOwkJPHRpdGxlIGlkPSJ0aXRsZTQ0MTgyIj5Db25uZWN0PC90aXRsZT4mI3hhOwkJPGcgaWQ9InNoYXBlODUyLTIiIHRyYW5zZm9ybT0idHJhbnNsYXRlKDEuNzc0MjYsLTEzLjQyOTMpIj4mI3hhOwkJCTx0aXRsZSBpZD0idGl0bGU0NDE4NCI+U2hlZXQuODUyPC90aXRsZT4mI3hhOwkJCTxwYXRoIGlkPSJwYXRoNDQxODYiIGlua3NjYXBlOmNvbm5lY3Rvci1jdXJ2YXR1cmU9IjAiIHN0eWxlPSJmaWxsOiMzRjU3NjU7IiBkPSJNMTUuODcsMjguOTlsNy40OS03LjU1bC03LjQ5LTcuNjVoLTQuODUgICAgIGw1LjcsNS44OEgwdjMuNjRoMTYuNzJsLTUuNyw1LjY4TDE1Ljg3LDI4Ljk5eiIvPiYjeGE7CQk8L2c+JiN4YTsJCTxnIGlkPSJzaGFwZTg1My00Ij4mI3hhOwkJCTx0aXRsZSBpZD0idGl0bGU0NDE4OSI+U2hlZXQuODUzPC90aXRsZT4mI3hhOwkJCTxwYXRoIGlkPSJwYXRoNDQxOTEiIGlua3NjYXBlOmNvbm5lY3Rvci1jdXJ2YXR1cmU9IjAiIHN0eWxlPSJmaWxsOiM5OTZEQUQ7IiBkPSJNNy4yOCwxMy45M0wwLDIxLjM3bDcuMjgsNy42Mmg0LjgzbC01LjM5LTUuNzcgICAgIGgxNi4zNXYtMy43MUg2LjcybDUuMzktNS41OEg3LjI4eiIvPiYjeGE7CQk8L2c+JiN4YTsJCTxnIGlkPSJzaGFwZTg1NC02IiB0cmFuc2Zvcm09InRyYW5zbGF0ZSgwLjA3MzkyNzYsLTAuMDY5MDI3MSkiPiYjeGE7CQkJPHRpdGxlIGlkPSJ0aXRsZTQ0MTk0Ij5TaGVldC44NTQ8L3RpdGxlPiYjeGE7CQkJPHJlY3QgaWQ9InJlY3Q0NDE5NiIgeD0iMCIgeT0iMC41IiBzdHlsZT0iZGlzcGxheTpub25lO2ZpbGw6IzNGNTc2NTsiIHdpZHRoPSIyNSIgaGVpZ2h0PSIyOC40OSIvPiYjeGE7CQkJPHJlY3QgaWQ9InJlY3Q0NDE5OCIgeD0iMCIgeT0iMC41IiBzdHlsZT0iZmlsbDpub25lOyIgd2lkdGg9IjI1IiBoZWlnaHQ9IjI4LjQ5Ii8+JiN4YTsJCTwvZz4mI3hhOwk8L2c+JiN4YTs8L2c+JiN4YTs8L3N2Zz4=;align=left;fontStyle=1;fontSize=15;" parent="1" vertex="1">
          <mxGeometry x="546.25" y="471.5" width="37.5" height="43.5" as="geometry" />
        </mxCell>
        <mxCell id="xIOn1DT5dU4AWs0Y2ffb-21" value="" style="shape=image;verticalLabelPosition=bottom;labelBackgroundColor=#ffffff;verticalAlign=top;aspect=fixed;imageAspect=0;image=data:image/svg+xml,PHN2ZyB4bWxuczpjYz0iaHR0cDovL2NyZWF0aXZlY29tbW9ucy5vcmcvbnMjIiB4bWxuczpkYz0iaHR0cDovL3B1cmwub3JnL2RjL2VsZW1lbnRzLzEuMS8iIHhtbG5zOmlua3NjYXBlPSJodHRwOi8vd3d3Lmlua3NjYXBlLm9yZy9uYW1lc3BhY2VzL2lua3NjYXBlIiB4bWxuczpyZGY9Imh0dHA6Ly93d3cudzMub3JnLzE5OTkvMDIvMjItcmRmLXN5bnRheC1ucyMiIHhtbG5zOnNvZGlwb2RpPSJodHRwOi8vc29kaXBvZGkuc291cmNlZm9yZ2UubmV0L0RURC9zb2RpcG9kaS0wLmR0ZCIgeG1sbnM6c3ZnPSJodHRwOi8vd3d3LnczLm9yZy8yMDAwL3N2ZyIgeG1sbnM9Imh0dHA6Ly93d3cudzMub3JnLzIwMDAvc3ZnIiB4bWxuczp4bGluaz0iaHR0cDovL3d3dy53My5vcmcvMTk5OS94bGluayIgdmVyc2lvbj0iMS4xIiBpZD0ic3ZnNDQyMDQiIGlua3NjYXBlOnZlcnNpb249IjAuOTIuMyAoMjQwNTU0NiwgMjAxOC0wMy0xMSkiIHNvZGlwb2RpOmRvY25hbWU9ImNvbm5lY3Quc3ZnIiB4PSIwcHgiIHk9IjBweCIgdmlld0JveD0iMCAwIDI1LjEzIDI4LjYzIiBzdHlsZT0iZW5hYmxlLWJhY2tncm91bmQ6bmV3IDAgMCAyNS4xMyAyOC42MzsiIHhtbDpzcGFjZT0icHJlc2VydmUiPiYjeGE7PHNvZGlwb2RpOm5hbWVkdmlldyBib3JkZXJjb2xvcj0iIzY2NjY2NiIgYm9yZGVyb3BhY2l0eT0iMSIgZml0LW1hcmdpbi1ib3R0b209IjAiIGZpdC1tYXJnaW4tbGVmdD0iMCIgZml0LW1hcmdpbi1yaWdodD0iMCIgZml0LW1hcmdpbi10b3A9IjAiIGdyaWR0b2xlcmFuY2U9IjEwIiBndWlkZXRvbGVyYW5jZT0iMTAiIGlkPSJuYW1lZHZpZXc0NDIwNiIgaW5rc2NhcGU6Y3VycmVudC1sYXllcj0ic3ZnNDQyMDQiIGlua3NjYXBlOmN4PSItOS4wNzEwMzU4IiBpbmtzY2FwZTpjeT0iLTEwLjM2NTcwMyIgaW5rc2NhcGU6cGFnZW9wYWNpdHk9IjAiIGlua3NjYXBlOnBhZ2VzaGFkb3c9IjIiIGlua3NjYXBlOndpbmRvdy1oZWlnaHQ9IjEwMTciIGlua3NjYXBlOndpbmRvdy1tYXhpbWl6ZWQ9IjEiIGlua3NjYXBlOndpbmRvdy13aWR0aD0iMTkyMCIgaW5rc2NhcGU6d2luZG93LXg9Ii04IiBpbmtzY2FwZTp3aW5kb3cteT0iLTgiIGlua3NjYXBlOnpvb209IjUuNjA4MTYyMyIgb2JqZWN0dG9sZXJhbmNlPSIxMCIgcGFnZWNvbG9yPSIjZmZmZmZmIiBzaG93Z3JpZD0iZmFsc2UiPiYjeGE7CTwvc29kaXBvZGk6bmFtZWR2aWV3PiYjeGE7PGcgaWQ9Imc0NDIwMiIgdHJhbnNmb3JtPSJ0cmFuc2xhdGUoLTAuMTc2MDg3MTMsLTAuMTc5NzI3KSI+JiN4YTsJPHRpdGxlIGlkPSJ0aXRsZTQ0MTgwIj5QYWdlLTE8L3RpdGxlPiYjeGE7CTxnIGlkPSJncm91cDg1MS0xIiB0cmFuc2Zvcm09InRyYW5zbGF0ZSgwLjE3NjA3MiwtMC4xODA5NzMpIj4mI3hhOwkJPHRpdGxlIGlkPSJ0aXRsZTQ0MTgyIj5Db25uZWN0PC90aXRsZT4mI3hhOwkJPGcgaWQ9InNoYXBlODUyLTIiIHRyYW5zZm9ybT0idHJhbnNsYXRlKDEuNzc0MjYsLTEzLjQyOTMpIj4mI3hhOwkJCTx0aXRsZSBpZD0idGl0bGU0NDE4NCI+U2hlZXQuODUyPC90aXRsZT4mI3hhOwkJCTxwYXRoIGlkPSJwYXRoNDQxODYiIGlua3NjYXBlOmNvbm5lY3Rvci1jdXJ2YXR1cmU9IjAiIHN0eWxlPSJmaWxsOiMzRjU3NjU7IiBkPSJNMTUuODcsMjguOTlsNy40OS03LjU1bC03LjQ5LTcuNjVoLTQuODUgICAgIGw1LjcsNS44OEgwdjMuNjRoMTYuNzJsLTUuNyw1LjY4TDE1Ljg3LDI4Ljk5eiIvPiYjeGE7CQk8L2c+JiN4YTsJCTxnIGlkPSJzaGFwZTg1My00Ij4mI3hhOwkJCTx0aXRsZSBpZD0idGl0bGU0NDE4OSI+U2hlZXQuODUzPC90aXRsZT4mI3hhOwkJCTxwYXRoIGlkPSJwYXRoNDQxOTEiIGlua3NjYXBlOmNvbm5lY3Rvci1jdXJ2YXR1cmU9IjAiIHN0eWxlPSJmaWxsOiM5OTZEQUQ7IiBkPSJNNy4yOCwxMy45M0wwLDIxLjM3bDcuMjgsNy42Mmg0LjgzbC01LjM5LTUuNzcgICAgIGgxNi4zNXYtMy43MUg2LjcybDUuMzktNS41OEg3LjI4eiIvPiYjeGE7CQk8L2c+JiN4YTsJCTxnIGlkPSJzaGFwZTg1NC02IiB0cmFuc2Zvcm09InRyYW5zbGF0ZSgwLjA3MzkyNzYsLTAuMDY5MDI3MSkiPiYjeGE7CQkJPHRpdGxlIGlkPSJ0aXRsZTQ0MTk0Ij5TaGVldC44NTQ8L3RpdGxlPiYjeGE7CQkJPHJlY3QgaWQ9InJlY3Q0NDE5NiIgeD0iMCIgeT0iMC41IiBzdHlsZT0iZGlzcGxheTpub25lO2ZpbGw6IzNGNTc2NTsiIHdpZHRoPSIyNSIgaGVpZ2h0PSIyOC40OSIvPiYjeGE7CQkJPHJlY3QgaWQ9InJlY3Q0NDE5OCIgeD0iMCIgeT0iMC41IiBzdHlsZT0iZmlsbDpub25lOyIgd2lkdGg9IjI1IiBoZWlnaHQ9IjI4LjQ5Ii8+JiN4YTsJCTwvZz4mI3hhOwk8L2c+JiN4YTs8L2c+JiN4YTs8L3N2Zz4=;align=left;fontStyle=1;fontSize=15;" parent="1" vertex="1">
          <mxGeometry x="546.25" y="809.4" width="35" height="40.6" as="geometry" />
        </mxCell>
        <mxCell id="xIOn1DT5dU4AWs0Y2ffb-23" value="K8S" style="whiteSpace=wrap;html=1;verticalAlign=top;align=left;strokeColor=#67AB9F;fillColor=#7EA6E0;fontStyle=1;fontSize=15;" parent="1" vertex="1">
          <mxGeometry x="877" y="400" width="480" height="470" as="geometry" />
        </mxCell>
        <mxCell id="xIOn1DT5dU4AWs0Y2ffb-24" value="GW" style="whiteSpace=wrap;html=1;verticalAlign=top;align=left;fillColor=#7EA6E0;fontStyle=1;fontSize=15;" parent="1" vertex="1">
          <mxGeometry x="690" y="400" width="130" height="590" as="geometry" />
        </mxCell>
        <mxCell id="xIOn1DT5dU4AWs0Y2ffb-28" value="NS:生产环境" style="rounded=0;whiteSpace=wrap;html=1;align=left;verticalAlign=top;dashed=1;strokeColor=#d6b656;fillColor=#fff2cc;fontStyle=1;fontSize=15;" parent="1" vertex="1">
          <mxGeometry x="917" y="433.25" width="420" height="120" as="geometry" />
        </mxCell>
        <mxCell id="xIOn1DT5dU4AWs0Y2ffb-29" value="NS:测试环境" style="rounded=0;whiteSpace=wrap;html=1;align=left;verticalAlign=top;dashed=1;strokeColor=#d6b656;fillColor=#fff2cc;fontStyle=1;fontSize=15;" parent="1" vertex="1">
          <mxGeometry x="917" y="715.3" width="420" height="120" as="geometry" />
        </mxCell>
        <mxCell id="wtm1ySMwc9PC7Cmq1RKc-3" value="pod" style="rounded=1;whiteSpace=wrap;html=1;fontStyle=1;fontSize=15;" parent="1" vertex="1">
          <mxGeometry x="952" y="478.25" width="50" height="30" as="geometry" />
        </mxCell>
        <mxCell id="wtm1ySMwc9PC7Cmq1RKc-5" value="pod" style="rounded=1;whiteSpace=wrap;html=1;fontStyle=1;fontSize=15;" parent="1" vertex="1">
          <mxGeometry x="1017" y="478.25" width="50" height="30" as="geometry" />
        </mxCell>
        <mxCell id="wtm1ySMwc9PC7Cmq1RKc-6" value="pod" style="rounded=1;whiteSpace=wrap;html=1;fontStyle=1;fontSize=15;" parent="1" vertex="1">
          <mxGeometry x="1077" y="478.25" width="50" height="30" as="geometry" />
        </mxCell>
        <mxCell id="wtm1ySMwc9PC7Cmq1RKc-7" value="pod" style="rounded=1;whiteSpace=wrap;html=1;fontStyle=1;fontSize=15;" parent="1" vertex="1">
          <mxGeometry x="1137" y="478.25" width="50" height="30" as="geometry" />
        </mxCell>
        <mxCell id="wtm1ySMwc9PC7Cmq1RKc-9" value="pod" style="rounded=1;whiteSpace=wrap;html=1;fontStyle=1;fontSize=15;" parent="1" vertex="1">
          <mxGeometry x="1197" y="478.25" width="50" height="30" as="geometry" />
        </mxCell>
        <mxCell id="wtm1ySMwc9PC7Cmq1RKc-10" value="pod" style="rounded=1;whiteSpace=wrap;html=1;fontStyle=1;fontSize=15;" parent="1" vertex="1">
          <mxGeometry x="1257" y="478.25" width="50" height="30" as="geometry" />
        </mxCell>
        <mxCell id="wtm1ySMwc9PC7Cmq1RKc-11" value="pod" style="rounded=1;whiteSpace=wrap;html=1;fontStyle=1;fontSize=15;" parent="1" vertex="1">
          <mxGeometry x="952" y="760.3" width="50" height="30" as="geometry" />
        </mxCell>
        <mxCell id="wtm1ySMwc9PC7Cmq1RKc-12" value="pod" style="rounded=1;whiteSpace=wrap;html=1;fontStyle=1;fontSize=15;" parent="1" vertex="1">
          <mxGeometry x="1017" y="760.3" width="50" height="30" as="geometry" />
        </mxCell>
        <mxCell id="wtm1ySMwc9PC7Cmq1RKc-13" value="pod" style="rounded=1;whiteSpace=wrap;html=1;fontStyle=1;fontSize=15;" parent="1" vertex="1">
          <mxGeometry x="1077" y="760.3" width="50" height="30" as="geometry" />
        </mxCell>
        <mxCell id="wtm1ySMwc9PC7Cmq1RKc-15" value="pod" style="rounded=1;whiteSpace=wrap;html=1;fontStyle=1;fontSize=15;" parent="1" vertex="1">
          <mxGeometry x="1197" y="760.3" width="50" height="30" as="geometry" />
        </mxCell>
        <mxCell id="wtm1ySMwc9PC7Cmq1RKc-16" value="pod" style="rounded=1;whiteSpace=wrap;html=1;fontStyle=1;fontSize=15;" parent="1" vertex="1">
          <mxGeometry x="1257" y="760.3" width="50" height="30" as="geometry" />
        </mxCell>
        <mxCell id="wtm1ySMwc9PC7Cmq1RKc-17" value="pod" style="rounded=1;whiteSpace=wrap;html=1;fontStyle=1;fontSize=15;" parent="1" vertex="1">
          <mxGeometry x="1137" y="760.3" width="50" height="30" as="geometry" />
        </mxCell>
        <mxCell id="wtm1ySMwc9PC7Cmq1RKc-21" value="" style="aspect=fixed;html=1;points=[];align=center;image;fontSize=15;image=img/lib/mscae/Load_Balancer_feature.svg;dashed=1;strokeColor=#AC49D0;fillColor=#9AC7BF;fontStyle=1" parent="1" vertex="1">
          <mxGeometry x="730" y="461.75" width="50" height="50" as="geometry" />
        </mxCell>
        <mxCell id="wtm1ySMwc9PC7Cmq1RKc-22" value="" style="aspect=fixed;html=1;points=[];align=center;image;fontSize=15;image=img/lib/mscae/Load_Balancer_feature.svg;dashed=1;strokeColor=#AC49D0;fillColor=#9AC7BF;fontStyle=1" parent="1" vertex="1">
          <mxGeometry x="730" y="809.4" width="50" height="50" as="geometry" />
        </mxCell>
        <mxCell id="wtm1ySMwc9PC7Cmq1RKc-24" style="edgeStyle=orthogonalEdgeStyle;rounded=0;orthogonalLoop=1;jettySize=auto;html=1;strokeWidth=5;fontStyle=1;fontSize=15;" parent="1" source="wtm1ySMwc9PC7Cmq1RKc-23" target="xIOn1DT5dU4AWs0Y2ffb-8" edge="1">
          <mxGeometry relative="1" as="geometry" />
        </mxCell>
        <mxCell id="wtm1ySMwc9PC7Cmq1RKc-25" style="edgeStyle=orthogonalEdgeStyle;rounded=0;orthogonalLoop=1;jettySize=auto;html=1;strokeWidth=5;fontStyle=1;fontSize=15;" parent="1" source="wtm1ySMwc9PC7Cmq1RKc-23" target="xIOn1DT5dU4AWs0Y2ffb-10" edge="1">
          <mxGeometry relative="1" as="geometry" />
        </mxCell>
        <mxCell id="wtm1ySMwc9PC7Cmq1RKc-23" value="" style="aspect=fixed;html=1;points=[];align=center;image;fontSize=15;image=img/lib/mscae/DNS_Private_Zones.svg;dashed=1;strokeColor=#AC49D0;fillColor=#9AC7BF;fontStyle=1" parent="1" vertex="1">
          <mxGeometry x="190" y="581.75" width="50" height="50" as="geometry" />
        </mxCell>
        <mxCell id="wtm1ySMwc9PC7Cmq1RKc-36" style="edgeStyle=orthogonalEdgeStyle;rounded=0;orthogonalLoop=1;jettySize=auto;html=1;strokeWidth=5;fontStyle=1;fontSize=15;" parent="1" source="PAZ-sfUF36BO0aC9PB7X-6" target="wtm1ySMwc9PC7Cmq1RKc-23" edge="1">
          <mxGeometry relative="1" as="geometry">
            <mxPoint x="100" y="606.75" as="sourcePoint" />
          </mxGeometry>
        </mxCell>
        <mxCell id="wtm1ySMwc9PC7Cmq1RKc-38" value="" style="shape=doubleArrow;whiteSpace=wrap;html=1;strokeColor=#AC49D0;fillColor=#F19C99;fontStyle=1;fontSize=15;" parent="1" vertex="1">
          <mxGeometry x="597" y="575.75" width="120" height="23.25" as="geometry" />
        </mxCell>
        <mxCell id="wtm1ySMwc9PC7Cmq1RKc-39" value="" style="shape=doubleArrow;whiteSpace=wrap;html=1;strokeColor=#AC49D0;fillColor=#F19C99;fontStyle=1;fontSize=15;" parent="1" vertex="1">
          <mxGeometry x="600.5" y="689" width="120" height="23.25" as="geometry" />
        </mxCell>
        <mxCell id="wtm1ySMwc9PC7Cmq1RKc-43" value="存储" style="rounded=0;whiteSpace=wrap;html=1;dashed=1;strokeColor=#6c8ebf;verticalAlign=top;align=left;fillColor=#dae8fc;fontStyle=1;fontSize=15;" parent="1" vertex="1">
          <mxGeometry x="1402" y="400" width="160" height="590" as="geometry" />
        </mxCell>
        <mxCell id="xIOn1DT5dU4AWs0Y2ffb-15" value="MYSQL" style="verticalLabelPosition=bottom;html=1;verticalAlign=top;align=center;strokeColor=none;fillColor=#00BEF2;shape=mxgraph.azure.mysql_database;fontStyle=1;fontSize=15;" parent="1" vertex="1">
          <mxGeometry x="1463" y="415" width="37.5" height="50" as="geometry" />
        </mxCell>
        <mxCell id="xIOn1DT5dU4AWs0Y2ffb-14" value="REDIS" style="shape=image;verticalLabelPosition=bottom;labelBackgroundColor=none;verticalAlign=top;aspect=fixed;imageAspect=0;image=data:image/svg+xml,PHN2ZyB4bWxuczpjYz0iaHR0cDovL2NyZWF0aXZlY29tbW9ucy5vcmcvbnMjIiB4bWxuczpkYz0iaHR0cDovL3B1cmwub3JnL2RjL2VsZW1lbnRzLzEuMS8iIHhtbG5zOmlua3NjYXBlPSJodHRwOi8vd3d3Lmlua3NjYXBlLm9yZy9uYW1lc3BhY2VzL2lua3NjYXBlIiB4bWxuczpyZGY9Imh0dHA6Ly93d3cudzMub3JnLzE5OTkvMDIvMjItcmRmLXN5bnRheC1ucyMiIHhtbG5zOnNvZGlwb2RpPSJodHRwOi8vc29kaXBvZGkuc291cmNlZm9yZ2UubmV0L0RURC9zb2RpcG9kaS0wLmR0ZCIgeG1sbnM6c3ZnPSJodHRwOi8vd3d3LnczLm9yZy8yMDAwL3N2ZyIgeG1sbnM9Imh0dHA6Ly93d3cudzMub3JnLzIwMDAvc3ZnIiB4bWxuczp4bGluaz0iaHR0cDovL3d3dy53My5vcmcvMTk5OS94bGluayIgdmVyc2lvbj0iMS4xIiBpZD0ic3ZnODU1MTEiIGlua3NjYXBlOnZlcnNpb249IjAuOTIuMyAoMjQwNTU0NiwgMjAxOC0wMy0xMSkiIHNvZGlwb2RpOmRvY25hbWU9InJlZGlzX2NhY2hlLnN2ZyIgeD0iMHB4IiB5PSIwcHgiIHZpZXdCb3g9IjAgMCAzNy41MSAzMS42IiBzdHlsZT0iZW5hYmxlLWJhY2tncm91bmQ6bmV3IDAgMCAzNy41MSAzMS42OyIgeG1sOnNwYWNlPSJwcmVzZXJ2ZSI+JiN4YTs8c29kaXBvZGk6bmFtZWR2aWV3IGJvcmRlcmNvbG9yPSIjNjY2NjY2IiBib3JkZXJvcGFjaXR5PSIxIiBmaXQtbWFyZ2luLWJvdHRvbT0iMCIgZml0LW1hcmdpbi1sZWZ0PSIwIiBmaXQtbWFyZ2luLXJpZ2h0PSIwIiBmaXQtbWFyZ2luLXRvcD0iMCIgZ3JpZHRvbGVyYW5jZT0iMTAiIGd1aWRldG9sZXJhbmNlPSIxMCIgaWQ9Im5hbWVkdmlldzg1NTEzIiBpbmtzY2FwZTpjdXJyZW50LWxheWVyPSJzdmc4NTUxMSIgaW5rc2NhcGU6Y3g9IjMwLjA3NTIzMSIgaW5rc2NhcGU6Y3k9IjAuMzQ3MzA4NDYiIGlua3NjYXBlOnBhZ2VvcGFjaXR5PSIwIiBpbmtzY2FwZTpwYWdlc2hhZG93PSIyIiBpbmtzY2FwZTp3aW5kb3ctaGVpZ2h0PSIxMDE3IiBpbmtzY2FwZTp3aW5kb3ctbWF4aW1pemVkPSIxIiBpbmtzY2FwZTp3aW5kb3ctd2lkdGg9IjE5MjAiIGlua3NjYXBlOndpbmRvdy14PSItOCIgaW5rc2NhcGU6d2luZG93LXk9Ii04IiBpbmtzY2FwZTp6b29tPSI2Ljk0NDY3MzkiIG9iamVjdHRvbGVyYW5jZT0iMTAiIHBhZ2Vjb2xvcj0iI2ZmZmZmZiIgc2hvd2dyaWQ9ImZhbHNlIj4mI3hhOwk8L3NvZGlwb2RpOm5hbWVkdmlldz4mI3hhOzxnIGlkPSJnODU1MDkiIHRyYW5zZm9ybT0idHJhbnNsYXRlKC0wLjc0NjgyNzEsLTAuNzUxNjI1KSI+JiN4YTsJPHRpdGxlIGlkPSJ0aXRsZTg1NDI1Ij5QYWdlLTE8L3RpdGxlPiYjeGE7CTxnIGlkPSJncm91cDQ0MTEtMSIgdHJhbnNmb3JtPSJ0cmFuc2xhdGUoMC40MDcyOSwtMC42MDkzNzUpIj4mI3hhOwkJPHRpdGxlIGlkPSJ0aXRsZTg1NDI3Ij5SZWRpcyBDYWNoZTwvdGl0bGU+JiN4YTsJCTxnIGlkPSJncm91cDQ0MTItMiI+JiN4YTsJCQk8dGl0bGUgaWQ9InRpdGxlODU0MjkiPlNoZWV0LjQ0MTI8L3RpdGxlPiYjeGE7CQkJPGcgaWQ9InNoYXBlNDQxMy0zIiB0cmFuc2Zvcm09InRyYW5zbGF0ZSgwLjIzNykiPiYjeGE7CQkJCTx0aXRsZSBpZD0idGl0bGU4NTQzMSI+U2hlZXQuNDQxMzwvdGl0bGU+JiN4YTsJCQkJPHBhdGggaWQ9InBhdGg4NTQzMyIgaW5rc2NhcGU6Y29ubmVjdG9yLWN1cnZhdHVyZT0iMCIgc3R5bGU9ImZpbGw6I0JBMTQxQTsiIGQ9Ik0wLjExLDI1LjE5Yy0wLjA2LDAuNCwwLjI4LDAuOCwxLjAyLDEuMTEgICAgICBsMTUuMjQsNi4yNGMxLjM3LDAuNTYsMy42LDAuNTYsNC45NywwbDE1LjI0LTYuMjRjMC43NC0wLjMxLDEuMDgtMC43MSwxLjAyLTEuMTF2LTMuNThjMC4wNSwwLjM5LTAuMjksMC43OS0xLjAyLDEuMDkgICAgICBsLTE1LjI0LDYuMjRjLTEuMzcsMC41Ni0zLjYsMC41Ni00Ljk3LDBMMS4xMywyMi43Yy0wLjgtMC4zMy0xLjEzLTAuNzgtMS0xLjJMMC4xMSwyNS4xOXoiLz4mI3hhOwkJCTwvZz4mI3hhOwkJCTxnIGlkPSJzaGFwZTQ0MTQtNSIgdHJhbnNmb3JtPSJ0cmFuc2xhdGUoMCwtMy42KSI+JiN4YTsJCQkJPHRpdGxlIGlkPSJ0aXRsZTg1NDM2Ij5TaGVldC40NDE0PC90aXRsZT4mI3hhOwkJCQk8cGF0aCBpZD0icGF0aDg1NDM4IiBpbmtzY2FwZTpjb25uZWN0b3ItY3VydmF0dXJlPSIwIiBzdHlsZT0iZmlsbDojQkExNDFBOyIgZD0iTTM2LjgxLDI0LjI2YzEuMzgsMC41NywxLjM4LDEuNDgsMCwyLjA0ICAgICAgbC0xNS4yMyw2LjI0Yy0xLjM3LDAuNTYtMy42LDAuNTYtNC45NywwTDEuMzcsMjYuM0MwLDI1Ljc0LDAsMjQuODMsMS4zNywyNC4yNmwxNS4yNC02LjI0YzEuMzctMC41NiwzLjYtMC41Niw0Ljk3LDAgICAgICBMMzYuODEsMjQuMjZ6Ii8+JiN4YTsJCQk8L2c+JiN4YTsJCTwvZz4mI3hhOwkJPGcgaWQ9Imdyb3VwNDQxNS03IiB0cmFuc2Zvcm09InRyYW5zbGF0ZSgwLC02LjMxOTUpIj4mI3hhOwkJCTx0aXRsZSBpZD0idGl0bGU4NTQ0MiI+U2hlZXQuNDQxNTwvdGl0bGU+JiN4YTsJCQk8ZyBpZD0ic2hhcGU0NDE2LTgiIHRyYW5zZm9ybT0idHJhbnNsYXRlKDAuMjM3KSI+JiN4YTsJCQkJPHRpdGxlIGlkPSJ0aXRsZTg1NDQ0Ij5TaGVldC40NDE2PC90aXRsZT4mI3hhOwkJCQk8cGF0aCBpZD0icGF0aDg1NDQ2IiBpbmtzY2FwZTpjb25uZWN0b3ItY3VydmF0dXJlPSIwIiBzdHlsZT0iZmlsbDojQkExNDFBOyIgZD0iTTAuMTEsMjUuMTljLTAuMDYsMC40LDAuMjgsMC44LDEuMDIsMS4xMSAgICAgIGwxNS4yNCw2LjI0YzEuMzcsMC41NiwzLjYsMC41Niw0Ljk3LDBsMTUuMjQtNi4yNGMwLjc0LTAuMzEsMS4wOC0wLjcxLDEuMDItMS4xMXYtMy41OGMwLjA1LDAuMzktMC4yOSwwLjc5LTEuMDIsMS4wOSAgICAgIGwtMTUuMjQsNi4yNGMtMS4zNywwLjU2LTMuNiwwLjU2LTQuOTcsMEwxLjEzLDIyLjdjLTAuOC0wLjMzLTEuMTMtMC43OC0xLTEuMkwwLjExLDI1LjE5eiIvPiYjeGE7CQkJPC9nPiYjeGE7CQkJPGcgaWQ9InNoYXBlNDQxNy0xMCIgdHJhbnNmb3JtPSJ0cmFuc2xhdGUoMCwtMy42KSI+JiN4YTsJCQkJPHRpdGxlIGlkPSJ0aXRsZTg1NDQ5Ij5TaGVldC40NDE3PC90aXRsZT4mI3hhOwkJCQk8cGF0aCBpZD0icGF0aDg1NDUxIiBpbmtzY2FwZTpjb25uZWN0b3ItY3VydmF0dXJlPSIwIiBzdHlsZT0iZmlsbDojQkExNDFBOyIgZD0iTTM2LjgxLDI0LjI2YzEuMzgsMC41NywxLjM4LDEuNDgsMCwyLjA0ICAgICAgbC0xNS4yMyw2LjI0Yy0xLjM3LDAuNTYtMy42LDAuNTYtNC45NywwTDEuMzcsMjYuM0MwLDI1Ljc0LDAsMjQuODMsMS4zNywyNC4yNmwxNS4yNC02LjI0YzEuMzctMC41NiwzLjYtMC41Niw0Ljk3LDAgICAgICBMMzYuODEsMjQuMjZ6Ii8+JiN4YTsJCQk8L2c+JiN4YTsJCTwvZz4mI3hhOwkJPGcgaWQ9Imdyb3VwNDQxOC0xMiI+JiN4YTsJCQk8dGl0bGUgaWQ9InRpdGxlODU0NTUiPlNoZWV0LjQ0MTg8L3RpdGxlPiYjeGE7CQkJPGcgaWQ9InNoYXBlNDQxOS0xMyIgdHJhbnNmb3JtPSJ0cmFuc2xhdGUoMC4yMzcsLTEyLjYzOSkiPiYjeGE7CQkJCTx0aXRsZSBpZD0idGl0bGU4NTQ1NyI+U2hlZXQuNDQxOTwvdGl0bGU+JiN4YTsJCQkJPHBhdGggaWQ9InBhdGg4NTQ1OSIgaW5rc2NhcGU6Y29ubmVjdG9yLWN1cnZhdHVyZT0iMCIgc3R5bGU9ImZpbGw6I0JBMTQxQTsiIGQ9Ik0wLjExLDI1LjE5Yy0wLjA2LDAuNCwwLjI4LDAuOCwxLjAyLDEuMTEgICAgICBsMTUuMjQsNi4yNGMxLjM3LDAuNTYsMy42LDAuNTYsNC45NywwbDE1LjI0LTYuMjRjMC43NC0wLjMxLDEuMDgtMC43MSwxLjAyLTEuMTF2LTMuNThjMC4wNSwwLjM5LTAuMjksMC43OS0xLjAyLDEuMDkgICAgICBsLTE1LjI0LDYuMjRjLTEuMzcsMC41Ni0zLjYsMC41Ni00Ljk3LDBMMS4xMywyMi43Yy0wLjgtMC4zMy0xLjEzLTAuNzgtMS0xLjJMMC4xMSwyNS4xOXoiLz4mI3hhOwkJCTwvZz4mI3hhOwkJCTxnIGlkPSJzaGFwZTQ0MjAtMTUiIHRyYW5zZm9ybT0idHJhbnNsYXRlKDAuMjM3KSI+JiN4YTsJCQkJPHRpdGxlIGlkPSJ0aXRsZTg1NDYyIj5TaGVldC40NDIwPC90aXRsZT4mI3hhOwkJCQk8cGF0aCBpZD0icGF0aDg1NDY0IiBpbmtzY2FwZTpjb25uZWN0b3ItY3VydmF0dXJlPSIwIiBzdHlsZT0iZmlsbDojMUUxRTFFO2ZpbGwtb3BhY2l0eTowLjI1OyIgZD0iTTAuMTEsMjUuMTkgICAgICBjLTAuMDYsMC40LDAuMjgsMC44LDEuMDIsMS4xMWwxNS4yNCw2LjI0YzEuMzcsMC41NiwzLjYsMC41Niw0Ljk3LDBsMTUuMjQtNi4yNGMwLjc0LTAuMzEsMS4wOC0wLjcxLDEuMDItMS4xMXYtMy41OCAgICAgIGMwLjA1LDAuMzktMC4yOSwwLjc5LTEuMDIsMS4wOWwtMTUuMjQsNi4yNGMtMS4zNywwLjU2LTMuNiwwLjU2LTQuOTcsMEwxLjEzLDIyLjdjLTAuOC0wLjMzLTEuMTMtMC43OC0xLTEuMkwwLjExLDI1LjE5eiIvPiYjeGE7CQkJPC9nPiYjeGE7CQkJPGcgaWQ9InNoYXBlNDQyMS0xNyIgdHJhbnNmb3JtPSJ0cmFuc2xhdGUoMC4yMzcsLTYuMzE5NSkiPiYjeGE7CQkJCTx0aXRsZSBpZD0idGl0bGU4NTQ2NyI+U2hlZXQuNDQyMTwvdGl0bGU+JiN4YTsJCQkJPHBhdGggaWQ9InBhdGg4NTQ2OSIgaW5rc2NhcGU6Y29ubmVjdG9yLWN1cnZhdHVyZT0iMCIgc3R5bGU9ImZpbGw6IzFFMUUxRTtmaWxsLW9wYWNpdHk6MC4yNTsiIGQ9Ik0wLjExLDI1LjE5ICAgICAgYy0wLjA2LDAuNCwwLjI4LDAuOCwxLjAyLDEuMTFsMTUuMjQsNi4yNGMxLjM3LDAuNTYsMy42LDAuNTYsNC45NywwbDE1LjI0LTYuMjRjMC43NC0wLjMxLDEuMDgtMC43MSwxLjAyLTEuMTF2LTMuNTggICAgICBjMC4wNSwwLjM5LTAuMjksMC43OS0xLjAyLDEuMDlsLTE1LjI0LDYuMjRjLTEuMzcsMC41Ni0zLjYsMC41Ni00Ljk3LDBMMS4xMywyMi43Yy0wLjgtMC4zMy0xLjEzLTAuNzgtMS0xLjJMMC4xMSwyNS4xOXoiLz4mI3hhOwkJCTwvZz4mI3hhOwkJCTxnIGlkPSJzaGFwZTQ0MjItMTkiIHRyYW5zZm9ybT0idHJhbnNsYXRlKDAuMjM3LC0xMi42MzkpIj4mI3hhOwkJCQk8dGl0bGUgaWQ9InRpdGxlODU0NzIiPlNoZWV0LjQ0MjI8L3RpdGxlPiYjeGE7CQkJCTxwYXRoIGlkPSJwYXRoODU0NzQiIGlua3NjYXBlOmNvbm5lY3Rvci1jdXJ2YXR1cmU9IjAiIHN0eWxlPSJmaWxsOiMxRTFFMUU7ZmlsbC1vcGFjaXR5OjAuMjU7IiBkPSJNMC4xMSwyNS4xOSAgICAgIGMtMC4wNiwwLjQsMC4yOCwwLjgsMS4wMiwxLjExbDE1LjI0LDYuMjRjMS4zNywwLjU2LDMuNiwwLjU2LDQuOTcsMGwxNS4yNC02LjI0YzAuNzQtMC4zMSwxLjA4LTAuNzEsMS4wMi0xLjExdi0zLjU4ICAgICAgYzAuMDUsMC4zOS0wLjI5LDAuNzktMS4wMiwxLjA5bC0xNS4yNCw2LjI0Yy0xLjM3LDAuNTYtMy42LDAuNTYtNC45NywwTDEuMTMsMjIuN2MtMC44LTAuMzMtMS4xMy0wLjc4LTEtMS4yTDAuMTEsMjUuMTl6Ii8+JiN4YTsJCQk8L2c+JiN4YTsJCQk8ZyBpZD0ic2hhcGU0NDIzLTIxIiB0cmFuc2Zvcm09InRyYW5zbGF0ZSgwLC0xNi4yMzkpIj4mI3hhOwkJCQk8dGl0bGUgaWQ9InRpdGxlODU0NzciPlNoZWV0LjQ0MjM8L3RpdGxlPiYjeGE7CQkJCTxwYXRoIGlkPSJwYXRoODU0NzkiIGlua3NjYXBlOmNvbm5lY3Rvci1jdXJ2YXR1cmU9IjAiIHN0eWxlPSJmaWxsOiNCQTE0MUE7IiBkPSJNMzYuODEsMjQuMjZjMS4zOCwwLjU3LDEuMzgsMS40OCwwLDIuMDQgICAgICBsLTE1LjIzLDYuMjRjLTEuMzcsMC41Ni0zLjYsMC41Ni00Ljk3LDBMMS4zNywyNi4zQzAsMjUuNzQsMCwyNC44MywxLjM3LDI0LjI2bDE1LjI0LTYuMjRjMS4zNy0wLjU2LDMuNi0wLjU2LDQuOTcsMCAgICAgIEwzNi44MSwyNC4yNnoiLz4mI3hhOwkJCTwvZz4mI3hhOwkJPC9nPiYjeGE7CQk8ZyBpZD0ic2hhcGU0NDI0LTIzIiB0cmFuc2Zvcm09InRyYW5zbGF0ZSg2LjM2MTUsLTIyLjExMjMpIj4mI3hhOwkJCTx0aXRsZSBpZD0idGl0bGU4NTQ4MyI+U2hlZXQuNDQyNDwvdGl0bGU+JiN4YTsJCQk8cGF0aCBpZD0icGF0aDg1NDg1IiBpbmtzY2FwZTpjb25uZWN0b3ItY3VydmF0dXJlPSIwIiBzdHlsZT0iZmlsbDojRkZGRkZGOyIgZD0iTTguMDQsMzIuMzNjLTEuNzQsMC43Ny00LjU2LDAuNzctNi4zLDAgICAgIEMwLDMxLjU2LDAsMzAuMywxLjc0LDI5LjUzYzEuNzQtMC43Nyw0LjU2LTAuNzcsNi4zLDBDOS43NywzMC4zLDkuNzgsMzEuNTYsOC4wNCwzMi4zM3oiLz4mI3hhOwkJPC9nPiYjeGE7CQk8ZyBpZD0ic2hhcGU0NDI1LTI1IiB0cmFuc2Zvcm09InRyYW5zbGF0ZSgxMy4yMTgsLTE3Ljk4OCkiPiYjeGE7CQkJPHRpdGxlIGlkPSJ0aXRsZTg1NDg4Ij5TaGVldC40NDI1PC90aXRsZT4mI3hhOwkJCTxwYXRoIGlkPSJwYXRoODU0OTAiIGlua3NjYXBlOmNvbm5lY3Rvci1jdXJ2YXR1cmU9IjAiIHN0eWxlPSJmaWxsOiNGRkZGRkY7IiBkPSJNMCwzMC4ybDguOTItMS4wNkw2LjUzLDMzLjFMMCwzMC4yeiIvPiYjeGE7CQk8L2c+JiN4YTsJCTxnIGlkPSJzaGFwZTQ0MjYtMjciIHRyYW5zZm9ybT0idHJhbnNsYXRlKDIxLjg2NCwtMjEuODkxKSI+JiN4YTsJCQk8dGl0bGUgaWQ9InRpdGxlODU0OTMiPlNoZWV0LjQ0MjY8L3RpdGxlPiYjeGE7CQkJPHBhdGggaWQ9InBhdGg4NTQ5NSIgaW5rc2NhcGU6Y29ubmVjdG9yLWN1cnZhdHVyZT0iMCIgc3R5bGU9ImZpbGw6IzFFMUUxRTtmaWxsLW9wYWNpdHk6MC4yNTsiIGQ9Ik01LjM0LDMzLjFMMCwzMC43M2w1LjM0LTIuMzcgICAgIGw1LjMzLDIuMzdMNS4zNCwzMy4xeiIvPiYjeGE7CQk8L2c+JiN4YTsJCTxnIGlkPSJzaGFwZTQ0MjctMjkiIHRyYW5zZm9ybT0idHJhbnNsYXRlKDIxLjg2NCwtMjEuODkxKSI+JiN4YTsJCQk8dGl0bGUgaWQ9InRpdGxlODU0OTgiPlNoZWV0LjQ0Mjc8L3RpdGxlPiYjeGE7CQkJPHBhdGggaWQ9InBhdGg4NTUwMCIgaW5rc2NhcGU6Y29ubmVjdG9yLWN1cnZhdHVyZT0iMCIgc3R5bGU9ImZpbGw6IzFFMUUxRTtmaWxsLW9wYWNpdHk6MC4yNTsiIGQ9Ik01LjM0LDMzLjFMMCwzMC43M2w1LjM0LTIuMzcgICAgIFYzMy4xeiIvPiYjeGE7CQk8L2c+JiN4YTsJCTxnIGlkPSJzaGFwZTQ0MjgtMzEiIHRyYW5zZm9ybT0idHJhbnNsYXRlKDEzLjg5NjcsLTI1LjYxNTUpIj4mI3hhOwkJCTx0aXRsZSBpZD0idGl0bGU4NTUwMyI+U2hlZXQuNDQyODwvdGl0bGU+JiN4YTsJCQk8cGF0aCBpZD0icGF0aDg1NTA1IiBpbmtzY2FwZTpjb25uZWN0b3ItY3VydmF0dXJlPSIwIiBzdHlsZT0iZmlsbDojRkZGRkZGOyIgZD0iTTMuNDgsMzEuNTVMMCwzMS4yNGwzLjA5LTAuNzhsLTAuNC0xLjU3ICAgICBsMi42MiwxLjA3bDMuMjQtMC42NmwtMS40OCwxLjQ0bDIuNDEsMS4xN2wtMy41NC0wLjE4TDQuMTksMzMuMUwzLjQ4LDMxLjU1eiIvPiYjeGE7CQk8L2c+JiN4YTsJPC9nPiYjeGE7PC9nPiYjeGE7PC9zdmc+;align=left;fontStyle=1;fontSize=15;" parent="1" vertex="1">
          <mxGeometry x="1463" y="511.75" width="38" height="32" as="geometry" />
        </mxCell>
        <mxCell id="wtm1ySMwc9PC7Cmq1RKc-44" value="OSS" style="shape=image;verticalLabelPosition=bottom;labelBackgroundColor=none;verticalAlign=top;aspect=fixed;imageAspect=0;image=data:image/svg+xml,PHN2ZyB4bWxuczpjYz0iaHR0cDovL2NyZWF0aXZlY29tbW9ucy5vcmcvbnMjIiB4bWxuczpkYz0iaHR0cDovL3B1cmwub3JnL2RjL2VsZW1lbnRzLzEuMS8iIHhtbG5zOmlua3NjYXBlPSJodHRwOi8vd3d3Lmlua3NjYXBlLm9yZy9uYW1lc3BhY2VzL2lua3NjYXBlIiB4bWxuczpyZGY9Imh0dHA6Ly93d3cudzMub3JnLzE5OTkvMDIvMjItcmRmLXN5bnRheC1ucyMiIHhtbG5zOnNvZGlwb2RpPSJodHRwOi8vc29kaXBvZGkuc291cmNlZm9yZ2UubmV0L0RURC9zb2RpcG9kaS0wLmR0ZCIgeG1sbnM6c3ZnPSJodHRwOi8vd3d3LnczLm9yZy8yMDAwL3N2ZyIgeG1sbnM9Imh0dHA6Ly93d3cudzMub3JnLzIwMDAvc3ZnIiB4bWxuczp4bGluaz0iaHR0cDovL3d3dy53My5vcmcvMTk5OS94bGluayIgdmVyc2lvbj0iMS4xIiBpZD0ic3ZnNDU2MDAiIGlua3NjYXBlOnZlcnNpb249IjAuOTIuMyAoMjQwNTU0NiwgMjAxOC0wMy0xMSkiIHNvZGlwb2RpOmRvY25hbWU9ImRhdGFfc3luY2hyb25pemF0aW9uLnN2ZyIgeD0iMHB4IiB5PSIwcHgiIHZpZXdCb3g9IjAgMCA1MS41IDMxLjc5IiBzdHlsZT0iZW5hYmxlLWJhY2tncm91bmQ6bmV3IDAgMCA1MS41IDMxLjc5OyIgeG1sOnNwYWNlPSJwcmVzZXJ2ZSI+JiN4YTs8c29kaXBvZGk6bmFtZWR2aWV3IGJvcmRlcmNvbG9yPSIjNjY2NjY2IiBib3JkZXJvcGFjaXR5PSIxIiBmaXQtbWFyZ2luLWJvdHRvbT0iMCIgZml0LW1hcmdpbi1sZWZ0PSIwIiBmaXQtbWFyZ2luLXJpZ2h0PSIwIiBmaXQtbWFyZ2luLXRvcD0iMCIgZ3JpZHRvbGVyYW5jZT0iMTAiIGd1aWRldG9sZXJhbmNlPSIxMCIgaWQ9Im5hbWVkdmlldzQ1NjAyIiBpbmtzY2FwZTpjdXJyZW50LWxheWVyPSJzdmc0NTYwMCIgaW5rc2NhcGU6Y3g9IjI5LjI1Njg1NyIgaW5rc2NhcGU6Y3k9Ii0xMC4xMzY5NzciIGlua3NjYXBlOnBhZ2VvcGFjaXR5PSIwIiBpbmtzY2FwZTpwYWdlc2hhZG93PSIyIiBpbmtzY2FwZTp3aW5kb3ctaGVpZ2h0PSIxMDE3IiBpbmtzY2FwZTp3aW5kb3ctbWF4aW1pemVkPSIxIiBpbmtzY2FwZTp3aW5kb3ctd2lkdGg9IjE5MjAiIGlua3NjYXBlOndpbmRvdy14PSItOCIgaW5rc2NhcGU6d2luZG93LXk9Ii04IiBpbmtzY2FwZTp6b29tPSI1LjExMzM5MDYiIG9iamVjdHRvbGVyYW5jZT0iMTAiIHBhZ2Vjb2xvcj0iI2ZmZmZmZiIgc2hvd2dyaWQ9ImZhbHNlIj4mI3hhOwk8L3NvZGlwb2RpOm5hbWVkdmlldz4mI3hhOzxnIGlkPSJnNDU1OTgiIHRyYW5zZm9ybT0idHJhbnNsYXRlKDAsLTAuMDA0MykiPiYjeGE7CTx0aXRsZSBpZD0idGl0bGU0NTU2MyI+UGFnZS0xPC90aXRsZT4mI3hhOwk8ZyBpZD0iZ3JvdXA0NDI5LTEiPiYjeGE7CQk8dGl0bGUgaWQ9InRpdGxlNDU1NjUiPkRhdGEgU3luY2hyb25pemF0aW9uPC90aXRsZT4mI3hhOwkJPGcgaWQ9InNoYXBlNDQzMC0yIiB0cmFuc2Zvcm09InRyYW5zbGF0ZSgwLC03Ljg2NTcpIj4mI3hhOwkJCTx0aXRsZSBpZD0idGl0bGU0NTU2NyI+U2hlZXQuNDQzMDwvdGl0bGU+JiN4YTsJCQk8cGF0aCBpZD0icGF0aDQ1NTY5IiBpbmtzY2FwZTpjb25uZWN0b3ItY3VydmF0dXJlPSIwIiBzdHlsZT0iZmlsbDojM0Y1NzY1OyIgZD0iTTIyLjgzLDEwLjQ1Yy0yLjQyLTEuODMtNi4xMy0yLjUyLTEwLjU4LTIuNTggICAgIGMtMi45OSwwLTUuNjksMC40LTcuNzksMS4xMmMtMS4wOCwwLjM3LTIuMDIsMC44LTIuODQsMS40NkMwLjgzLDExLjA2LDAsMTIuMTEsMCwxMy41MWMwLDExLjk0LDAsMTEuOTQsMCwxMS45NCAgICAgYzAsMS4zMywwLjY2LDIuNDUsMS40NiwzLjE5YzIuNDEsMi4yMSw2LjI1LDMuMDksMTAuNzksMy4xNWMxLjExLDAsMi4yNS0wLjA2LDMuMjgtMC4yYzAsMCw1LjUzLTAuOTksNy40Mi0yLjg5ICAgICBjMC4wNSwwLDAuMDUsMCwwLjA1LDBjMC43OS0wLjc1LDEuNDUtMS44NiwxLjQ1LTMuMTljMCwwLDAsMCwwLTYuNDRsMCwwYzAtNS41NiwwLTUuNTYsMC01LjU2ICAgICBDMjQuNDUsMTIuMTEsMjMuNjMsMTEuMDYsMjIuODMsMTAuNDV6IE0xMi4yNSwxMC4xMmM1LjQ4LDAsOS45NywxLjUyLDkuOTcsMy4zOWMwLDEuODgtNC40OSwzLjQtOS45NywzLjQgICAgIGMtNS41MywwLTkuOTktMS41Mi05Ljk5LTMuNEMyLjI2LDExLjY0LDYuNzIsMTAuMTIsMTIuMjUsMTAuMTJ6IE0yLjI2LDE1Ljg1YzAuMjUsMC4yMiwwLjU1LDAuNDMsMC44NywwLjYxICAgICBjMi4wNywxLjEzLDUuMzIsMS43Niw5LjEyLDEuNzljMi44MywwLDUuNDQtMC4zOSw3LjQtMS4wN2MxLTAuMzMsMS44Mi0wLjc1LDIuNTEtMS4yNmMwLjAxLTAuMDMsMC4wNC0wLjA2LDAuMDYtMC4wNyAgICAgYzAsMi40NCwwLDIuNDQsMCwyLjQ0YzAsMC42NSwwLDAuNjUsMCwwLjY1Yy0yLjM1LDAuOTgtNS40MSwxLjQ4LTUuNDEsMS40OGMtMS4zNywwLjI0LTIuOTcsMC40LTQuNjQsMC40ICAgICBjLTUuMzUsMC05LjcxLTEuNDUtOS45MS0zLjIzQzIuMjYsMTUuODUsMi4yNiwxNS44NSwyLjI2LDE1Ljg1eiBNMi4yNiwyMS45OWMwLTEuNDYsMC0yLjAyLDAtMi4yMmMwLjI3LDAuMjMsMC41NywwLjQsMC44NywwLjYxICAgICBjMi4wNywxLjExLDUuMzEsMS43Myw5LjA0LDEuNzNjMS4zNCwwLDIuNjMtMC4xMywzLjgxLTAuMjRjMi42Ny0wLjI0LDUuMi0xLjA2LDYuMjQtMS40M2MwLDIuNzUsMCwyLjc1LDAsMi43NSAgICAgYy00LjksMS40My02LjU3LDEuNTMtNi41NywxLjUzYy0xLjA4LDAuMTQtMi4yNywwLjIyLTMuNDgsMC4yMmMtNS4wNSwwLTkuMjItMS4yNy05LjkxLTIuODlDMi4yNiwyMS45OSwyLjI2LDIxLjk5LDIuMjYsMjEuOTl6ICAgICAgTTEyLjI1LDI5LjU2Yy01LjUzLDAtOS45OS0xLjg0LTkuOTktNC4xMWMwLTAuNTksMC0xLjA4LDAtMS40OGMwLjI1LDAuMTksMC41MSwwLjM0LDAuNzksMC41YzIuMDYsMS4xNCw1LjM1LDEuNzgsOS4xMiwxLjc4ICAgICBjMS4yMSwwLDIuMzYtMC4wOSwzLjQ1LTAuMmMyLjU2LTAuMzIsNS4yMy0xLjA2LDYuNi0xLjQ3YzAsMi4wNSwwLDIuMDUsMCwyLjA1Yy0wLjEzLDAuMzQtMC41MiwwLjkyLTEuNzQsMS41NyAgICAgYy0zLjA1LDAuOTMtNC45MSwxLjEzLTQuOTEsMS4xM0MxNC41NCwyOS40OSwxMy4zOCwyOS41NiwxMi4yNSwyOS41NnoiLz4mI3hhOwkJPC9nPiYjeGE7CQk8ZyBpZD0ic2hhcGU0NDMxLTQiIHRyYW5zZm9ybT0idHJhbnNsYXRlKDI3LjA1MzIsLTcuODY1NykiPiYjeGE7CQkJPHRpdGxlIGlkPSJ0aXRsZTQ1NTcyIj5TaGVldC40NDMxPC90aXRsZT4mI3hhOwkJCTxwYXRoIGlkPSJwYXRoNDU1NzQiIGlua3NjYXBlOmNvbm5lY3Rvci1jdXJ2YXR1cmU9IjAiIHN0eWxlPSJmaWxsOiMzRjU3NjU7IiBkPSJNMjIuODMsMTAuNDVjLTIuNDItMS44My02LjEzLTIuNTItMTAuNTgtMi41OCAgICAgYy0yLjk5LDAtNS42OSwwLjQtNy43OSwxLjEyYy0xLjA4LDAuMzctMi4wMiwwLjgtMi44NCwxLjQ2QzAuODMsMTEuMDYsMCwxMi4xMSwwLDEzLjUxYzAsMTEuOTQsMCwxMS45NCwwLDExLjk0ICAgICBjMCwxLjMzLDAuNjYsMi40NSwxLjQ2LDMuMTljMi40MSwyLjIxLDYuMjUsMy4wOSwxMC43OSwzLjE1YzEuMTEsMCwyLjI1LTAuMDYsMy4yOC0wLjJjMCwwLDUuNTMtMC45OSw3LjQyLTIuODkgICAgIGMwLjA1LDAsMC4wNSwwLDAuMDUsMGMwLjc5LTAuNzUsMS40NS0xLjg2LDEuNDUtMy4xOWMwLDAsMCwwLDAtNi40NGwwLDBjMC01LjU2LDAtNS41NiwwLTUuNTYgICAgIEMyNC40NSwxMi4xMSwyMy42MywxMS4wNiwyMi44MywxMC40NXogTTEyLjI1LDEwLjEyYzUuNDgsMCw5Ljk3LDEuNTIsOS45NywzLjM5YzAsMS44OC00LjQ5LDMuNC05Ljk3LDMuNCAgICAgYy01LjUzLDAtOS45OS0xLjUyLTkuOTktMy40QzIuMjYsMTEuNjQsNi43MiwxMC4xMiwxMi4yNSwxMC4xMnogTTIuMjYsMTUuODVjMC4yNSwwLjIyLDAuNTUsMC40MywwLjg3LDAuNjEgICAgIGMyLjA3LDEuMTMsNS4zMiwxLjc2LDkuMTIsMS43OWMyLjgzLDAsNS40NC0wLjM5LDcuNC0xLjA3YzEtMC4zMywxLjgyLTAuNzUsMi41MS0xLjI2YzAuMDEtMC4wMywwLjA0LTAuMDYsMC4wNi0wLjA3ICAgICBjMCwyLjQ0LDAsMi40NCwwLDIuNDRjMCwwLjY1LDAsMC42NSwwLDAuNjVjLTIuMzUsMC45OC01LjQxLDEuNDgtNS40MSwxLjQ4Yy0xLjM3LDAuMjQtMi45NywwLjQtNC42NCwwLjQgICAgIGMtNS4zNSwwLTkuNzEtMS40NS05LjkxLTMuMjNDMi4yNiwxNS44NSwyLjI2LDE1Ljg1LDIuMjYsMTUuODV6IE0yLjI2LDIxLjk5YzAtMS40NiwwLTIuMDIsMC0yLjIyYzAuMjcsMC4yMywwLjU3LDAuNCwwLjg3LDAuNjEgICAgIGMyLjA3LDEuMTEsNS4zMSwxLjczLDkuMDQsMS43M2MxLjM0LDAsMi42My0wLjEzLDMuODEtMC4yNGMyLjY3LTAuMjQsNS4yLTEuMDYsNi4yNC0xLjQzYzAsMi43NSwwLDIuNzUsMCwyLjc1ICAgICBjLTQuOSwxLjQzLTYuNTcsMS41My02LjU3LDEuNTNjLTEuMDgsMC4xNC0yLjI3LDAuMjItMy40OCwwLjIyYy01LjA1LDAtOS4yMi0xLjI3LTkuOTEtMi44OUMyLjI2LDIxLjk5LDIuMjYsMjEuOTksMi4yNiwyMS45OXogICAgICBNMTIuMjUsMjkuNTZjLTUuNTMsMC05Ljk5LTEuODQtOS45OS00LjExYzAtMC41OSwwLTEuMDgsMC0xLjQ4YzAuMjUsMC4xOSwwLjUxLDAuMzQsMC43OSwwLjVjMi4wNiwxLjE0LDUuMzUsMS43OCw5LjEyLDEuNzggICAgIGMxLjIxLDAsMi4zNi0wLjA5LDMuNDUtMC4yYzIuNTYtMC4zMiw1LjIzLTEuMDYsNi42LTEuNDdjMCwyLjA1LDAsMi4wNSwwLDIuMDVjLTAuMTMsMC4zNC0wLjUyLDAuOTItMS43NCwxLjU3ICAgICBjLTMuMDUsMC45My00LjkxLDEuMTMtNC45MSwxLjEzQzE0LjU0LDI5LjQ5LDEzLjM4LDI5LjU2LDEyLjI1LDI5LjU2eiIvPiYjeGE7CQk8L2c+JiN4YTsJCTxnIGlkPSJzaGFwZTQ0MzItNiIgdHJhbnNmb3JtPSJ0cmFuc2xhdGUoMTQuMzgyNywtMTQuMjIzMSkiPiYjeGE7CQkJPHRpdGxlIGlkPSJ0aXRsZTQ1NTc3Ij5TaGVldC40NDMyPC90aXRsZT4mI3hhOwkJCTxwYXRoIGlkPSJwYXRoNDU1NzkiIGlua3NjYXBlOmNvbm5lY3Rvci1jdXJ2YXR1cmU9IjAiIHN0eWxlPSJmaWxsOiM3RkJBMDA7IiBkPSJNMCwyNy44M2MwLTIuMTksNC45NC0zLjk3LDExLjAzLTMuOTcgICAgIHMxMS4wMiwxLjc4LDExLjAyLDMuOTdzLTQuOTMsMy45Ni0xMS4wMiwzLjk2UzAsMzAuMDIsMCwyNy44M3oiLz4mI3hhOwkJPC9nPiYjeGE7CQk8ZyBpZD0ic2hhcGU0NDMzLTgiIHRyYW5zZm9ybT0idHJhbnNsYXRlKDE0LjM4MjcsLTEuMzAzMTkpIj4mI3hhOwkJCTx0aXRsZSBpZD0idGl0bGU0NTU4MiI+U2hlZXQuNDQzMzwvdGl0bGU+JiN4YTsJCQk8cGF0aCBpZD0icGF0aDQ1NTg0IiBpbmtzY2FwZTpjb25uZWN0b3ItY3VydmF0dXJlPSIwIiBzdHlsZT0iZmlsbDojN0ZCQTAwOyIgZD0iTTAsMjcuODNjMC0yLjE5LDQuOTQtMy45NywxMS4wMy0zLjk3ICAgICBzMTEuMDIsMS43OCwxMS4wMiwzLjk3cy00LjkzLDMuOTYtMTEuMDIsMy45NlMwLDMwLjAyLDAsMjcuODN6Ii8+JiN4YTsJCTwvZz4mI3hhOwkJPGcgaWQ9InNoYXBlNDQzNC0xMCIgdHJhbnNmb3JtPSJ0cmFuc2xhdGUoMTQuNTE5NywtNC4zNzkzNykiPiYjeGE7CQkJPHRpdGxlIGlkPSJ0aXRsZTQ1NTg3Ij5TaGVldC40NDM0PC90aXRsZT4mI3hhOwkJCTxwYXRoIGlkPSJwYXRoNDU1ODkiIGlua3NjYXBlOmNvbm5lY3Rvci1jdXJ2YXR1cmU9IjAiIHN0eWxlPSJmaWxsOiM3RkJBMDA7IiBkPSJNMCwxOC4xOXYxMy42aDIyLjUzdi0xMy42SDB6Ii8+JiN4YTsJCTwvZz4mI3hhOwkJPGcgaWQ9InNoYXBlNDQzNS0xMiIgdHJhbnNmb3JtPSJ0cmFuc2xhdGUoMTMuOTU5NCkiPiYjeGE7CQkJPHRpdGxlIGlkPSJ0aXRsZTQ1NTkyIj5TaGVldC40NDM1PC90aXRsZT4mI3hhOwkJCTxwYXRoIGlkPSJwYXRoNDU1OTQiIGlua3NjYXBlOmNvbm5lY3Rvci1jdXJ2YXR1cmU9IjAiIHN0eWxlPSJmaWxsOiMzRjU3NjU7IiBkPSJNMjIuOSwxMC4zOWMtMi40My0xLjg0LTYuMTUtMi41Mi0xMC42Mi0yLjU5ICAgICBjLTIuOTksMC01LjcsMC40LTcuODEsMS4xMkMzLjM5LDkuMywyLjQ1LDkuNzMsMS42MywxMC4zOUMwLjgzLDExLDAsMTIuMDUsMCwxMy40NmMwLDExLjk3LDAsMTEuOTcsMCwxMS45NyAgICAgYzAsMS4zNCwwLjY2LDIuNDYsMS40NiwzLjJjMi40MSwyLjIyLDYuMjcsMy4xLDEwLjgyLDMuMTZjMS4xMSwwLDIuMjYtMC4wNiwzLjI5LTAuMmMwLDAsNS41NS0xLDcuNDUtMi45YzAuMDQsMCwwLjA0LDAsMC4wNCwwICAgICBjMC44LTAuNzQsMS40Ni0xLjg3LDEuNDYtMy4yYzAsMCwwLDAsMC02LjQ2bDAsMGMwLTUuNTcsMC01LjU3LDAtNS41N0MyNC41MiwxMi4wNSwyMy43LDExLDIyLjksMTAuMzl6IE0xMi4yOCwxMC4wNSAgICAgYzUuNSwwLDEwLjAxLDEuNTMsMTAuMDEsMy40MWMwLDEuODktNC41MSwzLjQxLTEwLjAxLDMuNDFjLTUuNTMsMC0xMC4wMi0xLjUyLTEwLjAyLTMuNDFDMi4yNiwxMS41OCw2Ljc1LDEwLjA1LDEyLjI4LDEwLjA1eiAgICAgIE0yLjI2LDE1LjgxYzAuMjYsMC4yMSwwLjU2LDAuNDMsMC44OCwwLjZjMi4wNywxLjE0LDUuMzQsMS43Nyw5LjE0LDEuOGMyLjg0LDAsNS40Ni0wLjM5LDcuNDItMS4wNyAgICAgYzEuMDEtMC4zNCwxLjgzLTAuNzYsMi41Mi0xLjI3YzAuMDEtMC4wMiwwLjA0LTAuMDUsMC4wNy0wLjA2YzAsMi40NCwwLDIuNDQsMCwyLjQ0YzAsMC42NSwwLDAuNjUsMCwwLjY1ICAgICBjLTIuMzYsMC45OC01LjQzLDEuNDgtNS40MywxLjQ4Yy0xLjM4LDAuMjUtMi45OCwwLjQxLTQuNjYsMC40MWMtNS4zNiwwLTkuNzMtMS40Ni05Ljk0LTMuMjRDMi4yNiwxNS44MSwyLjI2LDE1LjgxLDIuMjYsMTUuODF6ICAgICAgTTIuMjYsMjEuOTZjMC0xLjQ3LDAtMi4wMiwwLTIuMjNjMC4yNywwLjI0LDAuNTcsMC40MSwwLjg4LDAuNjFjMi4wNywxLjEyLDUuMzIsMS43NCw5LjA2LDEuNzRjMS4zNCwwLDIuNjQtMC4xMywzLjgyLTAuMjQgICAgIGMyLjY4LTAuMjQsNS4yMi0xLjA2LDYuMjctMS40M2MwLDIuNzYsMCwyLjc2LDAsMi43NmMtNC45MiwxLjQzLTYuNiwxLjUzLTYuNiwxLjUzYy0xLjA4LDAuMTQtMi4yNywwLjIyLTMuNDksMC4yMiAgICAgYy01LjA2LDAtOS4yNS0xLjI3LTkuOTQtMi45QzIuMjYsMjEuOTYsMi4yNiwyMS45NiwyLjI2LDIxLjk2eiBNMTIuMjgsMjkuNTVjLTUuNTMsMC0xMC4wMi0xLjg1LTEwLjAyLTQuMTIgICAgIGMwLTAuNTksMC0xLjA4LDAtMS40OGMwLjI2LDAuMTksMC41MiwwLjMzLDAuOCwwLjVjMi4wNiwxLjE1LDUuMzYsMS43OCw5LjE0LDEuNzhjMS4yMiwwLDIuMzctMC4wOCwzLjQ3LTAuMiAgICAgYzIuNTYtMC4zMSw1LjI0LTEuMDYsNi42Mi0xLjQ3YzAsMi4wNiwwLDIuMDYsMCwyLjA2Yy0wLjE0LDAuMzQtMC41MywwLjkyLTEuNzUsMS41N2MtMy4wNiwwLjkzLTQuOTMsMS4xMy00LjkzLDEuMTMgICAgIEMxNC41OCwyOS40OCwxMy40MiwyOS41NSwxMi4yOCwyOS41NXoiLz4mI3hhOwkJPC9nPiYjeGE7CTwvZz4mI3hhOzwvZz4mI3hhOzwvc3ZnPg==;dashed=1;strokeColor=#AC49D0;fillColor=#9AC7BF;align=center;fontStyle=1;fontSize=15;" parent="1" vertex="1">
          <mxGeometry x="1463" y="603" width="52" height="32" as="geometry" />
        </mxCell>
        <mxCell id="wtm1ySMwc9PC7Cmq1RKc-45" value="KAFKA" style="outlineConnect=0;fontColor=#232F3E;gradientColor=#945DF2;gradientDirection=north;fillColor=#5A30B5;strokeColor=#ffffff;dashed=0;verticalLabelPosition=bottom;verticalAlign=top;align=center;html=1;fontSize=15;fontStyle=1;aspect=fixed;shape=mxgraph.aws4.resourceIcon;resIcon=mxgraph.aws4.managed_streaming_for_kafka;labelBackgroundColor=none;" parent="1" vertex="1">
          <mxGeometry x="1464" y="688" width="50" height="50" as="geometry" />
        </mxCell>
        <mxCell id="wtm1ySMwc9PC7Cmq1RKc-46" value="ELK" style="outlineConnect=0;dashed=0;verticalLabelPosition=bottom;verticalAlign=top;align=center;html=1;shape=mxgraph.aws3.elasticsearch_service;fillColor=#F58534;gradientColor=none;labelBackgroundColor=none;strokeColor=#AC49D0;fontStyle=1;fontSize=15;" parent="1" vertex="1">
          <mxGeometry x="1454" y="780" width="56" height="60" as="geometry" />
        </mxCell>
        <mxCell id="wtm1ySMwc9PC7Cmq1RKc-50" value="NS:第三方应用" style="rounded=0;whiteSpace=wrap;html=1;align=left;verticalAlign=top;dashed=1;strokeColor=#d6b656;fillColor=#fff2cc;fontStyle=1;fontSize=15;" parent="1" vertex="1">
          <mxGeometry x="917" y="568" width="420" height="120" as="geometry" />
        </mxCell>
        <mxCell id="wtm1ySMwc9PC7Cmq1RKc-51" value="pod" style="rounded=1;whiteSpace=wrap;html=1;fontStyle=1;fontSize=15;" parent="1" vertex="1">
          <mxGeometry x="952" y="620" width="50" height="30" as="geometry" />
        </mxCell>
        <mxCell id="wtm1ySMwc9PC7Cmq1RKc-52" value="pod" style="rounded=1;whiteSpace=wrap;html=1;fontStyle=1;fontSize=15;" parent="1" vertex="1">
          <mxGeometry x="1017" y="620" width="50" height="30" as="geometry" />
        </mxCell>
        <mxCell id="wtm1ySMwc9PC7Cmq1RKc-53" value="pod" style="rounded=1;whiteSpace=wrap;html=1;fontStyle=1;fontSize=15;" parent="1" vertex="1">
          <mxGeometry x="1077" y="620" width="50" height="30" as="geometry" />
        </mxCell>
        <mxCell id="wtm1ySMwc9PC7Cmq1RKc-54" value="pod" style="rounded=1;whiteSpace=wrap;html=1;fontStyle=1;fontSize=15;" parent="1" vertex="1">
          <mxGeometry x="1137" y="620" width="50" height="30" as="geometry" />
        </mxCell>
        <mxCell id="wtm1ySMwc9PC7Cmq1RKc-55" value="pod" style="rounded=1;whiteSpace=wrap;html=1;fontStyle=1;fontSize=15;" parent="1" vertex="1">
          <mxGeometry x="1197" y="620" width="50" height="30" as="geometry" />
        </mxCell>
        <mxCell id="wtm1ySMwc9PC7Cmq1RKc-56" value="pod" style="rounded=1;whiteSpace=wrap;html=1;fontStyle=1;fontSize=15;" parent="1" vertex="1">
          <mxGeometry x="1257" y="620" width="50" height="30" as="geometry" />
        </mxCell>
        <mxCell id="wtm1ySMwc9PC7Cmq1RKc-57" value="" style="shape=doubleArrow;whiteSpace=wrap;html=1;strokeColor=#AC49D0;fillColor=#F19C99;fontStyle=1;fontSize=15;" parent="1" vertex="1">
          <mxGeometry x="1343" y="570.75" width="97" height="23.25" as="geometry" />
        </mxCell>
        <mxCell id="wtm1ySMwc9PC7Cmq1RKc-58" value="" style="shape=doubleArrow;whiteSpace=wrap;html=1;strokeColor=#AC49D0;fillColor=#F19C99;fontStyle=1;fontSize=15;" parent="1" vertex="1">
          <mxGeometry x="1343" y="684" width="97" height="23.25" as="geometry" />
        </mxCell>
        <mxCell id="PAZ-sfUF36BO0aC9PB7X-27" style="edgeStyle=orthogonalEdgeStyle;rounded=0;orthogonalLoop=1;jettySize=auto;html=1;strokeWidth=5;fontStyle=1;fontSize=15;" parent="1" source="PAZ-sfUF36BO0aC9PB7X-2" target="wtm1ySMwc9PC7Cmq1RKc-23" edge="1">
          <mxGeometry relative="1" as="geometry" />
        </mxCell>
        <mxCell id="PAZ-sfUF36BO0aC9PB7X-2" value="第三方合作伙伴" style="shape=actor;whiteSpace=wrap;html=1;dashed=1;strokeColor=#AC49D0;fillColor=#7EA6E0;verticalAlign=top;align=center;labelPosition=center;verticalLabelPosition=bottom;fontStyle=1;fontSize=15;labelBackgroundColor=none;labelBorderColor=none;horizontal=1;fontFamily=Helvetica;" parent="1" vertex="1">
          <mxGeometry x="67" y="813" width="40" height="60" as="geometry" />
        </mxCell>
        <mxCell id="PAZ-sfUF36BO0aC9PB7X-6" value="用户" style="shape=image;verticalLabelPosition=bottom;labelBackgroundColor=#ffffff;verticalAlign=top;aspect=fixed;imageAspect=0;image=data:image/svg+xml,PHN2ZyB4bWxuczpjYz0iaHR0cDovL2NyZWF0aXZlY29tbW9ucy5vcmcvbnMjIiB4bWxuczpkYz0iaHR0cDovL3B1cmwub3JnL2RjL2VsZW1lbnRzLzEuMS8iIHhtbG5zOmlua3NjYXBlPSJodHRwOi8vd3d3Lmlua3NjYXBlLm9yZy9uYW1lc3BhY2VzL2lua3NjYXBlIiB4bWxuczpyZGY9Imh0dHA6Ly93d3cudzMub3JnLzE5OTkvMDIvMjItcmRmLXN5bnRheC1ucyMiIHhtbG5zOnNvZGlwb2RpPSJodHRwOi8vc29kaXBvZGkuc291cmNlZm9yZ2UubmV0L0RURC9zb2RpcG9kaS0wLmR0ZCIgeG1sbnM6c3ZnPSJodHRwOi8vd3d3LnczLm9yZy8yMDAwL3N2ZyIgeG1sbnM9Imh0dHA6Ly93d3cudzMub3JnLzIwMDAvc3ZnIiB4bWxuczp4bGluaz0iaHR0cDovL3d3dy53My5vcmcvMTk5OS94bGluayIgdmVyc2lvbj0iMS4xIiBpZD0ic3ZnNTc1ODIiIGlua3NjYXBlOnZlcnNpb249IjAuOTIuMyAoMjQwNTU0NiwgMjAxOC0wMy0xMSkiIHNvZGlwb2RpOmRvY25hbWU9ImFmZmlsaWF0ZV9wdWJsaXNoZXIuc3ZnIiB4PSIwcHgiIHk9IjBweCIgdmlld0JveD0iMCAwIDgwLjE5IDc0LjE0IiBzdHlsZT0iZW5hYmxlLWJhY2tncm91bmQ6bmV3IDAgMCA4MC4xOSA3NC4xNDsiIHhtbDpzcGFjZT0icHJlc2VydmUiPiYjeGE7PHNvZGlwb2RpOm5hbWVkdmlldyBib3JkZXJjb2xvcj0iIzY2NjY2NiIgYm9yZGVyb3BhY2l0eT0iMSIgZml0LW1hcmdpbi1ib3R0b209IjAiIGZpdC1tYXJnaW4tbGVmdD0iMCIgZml0LW1hcmdpbi1yaWdodD0iMCIgZml0LW1hcmdpbi10b3A9IjAiIGdyaWR0b2xlcmFuY2U9IjEwIiBndWlkZXRvbGVyYW5jZT0iMTAiIGlkPSJuYW1lZHZpZXc1NzU4NCIgaW5rc2NhcGU6Y3VycmVudC1sYXllcj0ic3ZnNTc1ODIiIGlua3NjYXBlOmN4PSI1My40NjI0MDIiIGlua3NjYXBlOmN5PSI0OS40Mjg5NTEiIGlua3NjYXBlOnBhZ2VvcGFjaXR5PSIwIiBpbmtzY2FwZTpwYWdlc2hhZG93PSIyIiBpbmtzY2FwZTp3aW5kb3ctaGVpZ2h0PSIxMDE3IiBpbmtzY2FwZTp3aW5kb3ctbWF4aW1pemVkPSIxIiBpbmtzY2FwZTp3aW5kb3ctd2lkdGg9IjE5MjAiIGlua3NjYXBlOndpbmRvdy14PSItOCIgaW5rc2NhcGU6d2luZG93LXk9Ii04IiBpbmtzY2FwZTp6b29tPSI4Ljc3MTAxNCIgb2JqZWN0dG9sZXJhbmNlPSIxMCIgcGFnZWNvbG9yPSIjZmZmZmZmIiBzaG93Z3JpZD0iZmFsc2UiPiYjeGE7CTwvc29kaXBvZGk6bmFtZWR2aWV3PiYjeGE7PGcgaWQ9Imc1NzU4MCIgdHJhbnNmb3JtPSJ0cmFuc2xhdGUoMCwtMS4wNzA0NzU3ZS00KSI+JiN4YTsJPHRpdGxlIGlkPSJ0aXRsZTU3NTczIj5QYWdlLTE8L3RpdGxlPiYjeGE7CTxnIGlkPSJzaGFwZTU0ODUtMSI+JiN4YTsJCTx0aXRsZSBpZD0idGl0bGU1NzU3NSI+QWZmaWxpYXRlIFB1Ymxpc2hlcjwvdGl0bGU+JiN4YTsJCTxwYXRoIGlkPSJwYXRoNTc1NzciIGlua3NjYXBlOmNvbm5lY3Rvci1jdXJ2YXR1cmU9IjAiIHN0eWxlPSJmaWxsOiMzRjU3NjU7IiBkPSJNNjIuMzMsMjAuMTRjMCwwLDAuMTEsMCwxMy44NSwwICAgIGMyLjIyLDAsNC4wMSwxLjk2LDQuMDEsNC4zM2MwLDAsMCwwLjE1LDAsMjAuNDFjMCwyLjM3LTEuNzksNC4zMy00LjAxLDQuMzNjMCwwLDAsMC4xMSwwLDE0LjU1YzAsMi4zNy0xLjgsNC4zMy00LjAyLDQuMzMgICAgYzAsMC0wLjA0LDAtNi4wMSwwYy0yLjAzLDAtMy44Mi0xLjk2LTMuODItNC4zM2MwLDAsMC0wLjEyLDAtMTQuNTVjLTIuMjIsMC00LjAyLTEuOTYtNC4wMi00LjMzYzAsMCwwLTAuMTUsMC0yMC40MSAgICBDNTguMzEsMjIuMSw2MC4xMSwyMC4xNCw2Mi4zMywyMC4xNHogTTQuMDIsMjAuMTRjMCwwLDAuMDcsMCwxMy44MSwwYzIuMTgsMCwzLjk4LDEuOTYsMy45OCw0LjMzYzAsMCwwLDAuMDgsMCwyMC40MSAgICBjMCwyLjM3LTEuOCw0LjMzLTMuOTgsNC4zM2MwLDAsMCwwLjA3LDAsMTQuNTVjMCwyLjM3LTEuOCw0LjMzLTMuNzksNC4zM2MwLDAtMC4wNywwLTYuMDEsMGMtMi4yMSwwLTQuMDEtMS45Ni00LjAxLTQuMzMgICAgYzAsMCwwLTAuMDgsMC0xNC41NUMxLjg0LDQ5LjIxLDAsNDcuMjUsMCw0NC44OGMwLDAsMC0wLjA4LDAtMjAuNDFDMCwyMi4xLDEuODQsMjAuMTQsNC4wMiwyMC4xNHogTTMyLjA2LDE4LjE5ICAgIGMwLDAsMC4xNiwwLDE2LjA3LDBjMi42NCwwLDQuODIsMi40MSw0LjgyLDUuMjFjMCwwLDAsMC4xNSwwLDIzLjY2YzAsMi44LTIuMTgsNS4yMS00LjgyLDUuMjFjMCwwLDAsMC4xMiwwLDE2LjcgICAgYzAsMi43OS0xLjk5LDUuMTctNC41OSw1LjE3YzAsMC0wLjA4LDAtNi44NSwwYy0yLjYsMC00LjYzLTIuMzgtNC42My01LjE3YzAsMCwwLTAuMTYsMC0xNi43Yy0yLjYsMC00LjgyLTIuNDEtNC44Mi01LjIxICAgIGMwLDAsMC0wLjE1LDAtMjMuNjZDMjcuMjQsMjAuNiwyOS40NiwxOC4xOSwzMi4wNiwxOC4xOXogTTY5LjI1LDQuNTJjMy42NCwwLDYuNTQsMy4yMiw2LjU0LDcuMTZzLTIuOSw3LjE2LTYuNTQsNy4xNiAgICBjLTMuNiwwLTYuNS0zLjIyLTYuNS03LjE2UzY1LjY1LDQuNTIsNjkuMjUsNC41MnogTTEwLjksNC41MmMzLjYsMCw2LjUxLDMuMjIsNi41MSw3LjE2cy0yLjkxLDcuMTYtNi41MSw3LjE2ICAgIGMtMy41NSwwLTYuNDYtMy4yMi02LjQ2LTcuMTZTNy4zNSw0LjUyLDEwLjksNC41MnogTTQwLjA2LDBjNC4yNSwwLDcuNjUsMy43NSw3LjY1LDguMzVjMCw0LjU1LTMuNCw4LjMxLTcuNjUsOC4zMSAgICBjLTQuMjEsMC03LjYyLTMuNzYtNy42Mi04LjMxQzMyLjQ0LDMuNzUsMzUuODUsMCw0MC4wNiwweiIvPiYjeGE7CTwvZz4mI3hhOzwvZz4mI3hhOzwvc3ZnPg==;fontStyle=1;fontSize=15;" parent="1" vertex="1">
          <mxGeometry x="55" y="570" width="80" height="74" as="geometry" />
        </mxCell>
        <mxCell id="PAZ-sfUF36BO0aC9PB7X-17" value="" style="edgeStyle=orthogonalEdgeStyle;rounded=0;orthogonalLoop=1;jettySize=auto;html=1;strokeWidth=5;fontStyle=1;fontSize=15;" parent="1" source="PAZ-sfUF36BO0aC9PB7X-11" target="PAZ-sfUF36BO0aC9PB7X-16" edge="1">
          <mxGeometry relative="1" as="geometry" />
        </mxCell>
        <mxCell id="8cuVBeNiY9Bw5ADYlNcY-8" style="edgeStyle=orthogonalEdgeStyle;rounded=0;orthogonalLoop=1;jettySize=auto;html=1;entryX=0.5;entryY=0;entryDx=0;entryDy=0;labelBackgroundColor=#99FFCC;strokeWidth=5;fontSize=30;fontColor=#000000;" edge="1" parent="1" source="PAZ-sfUF36BO0aC9PB7X-11" target="p6RBwhQNt-7Z39dhlTQw-69">
          <mxGeometry relative="1" as="geometry" />
        </mxCell>
        <mxCell id="PAZ-sfUF36BO0aC9PB7X-11" value="NAT" style="whiteSpace=wrap;html=1;verticalAlign=top;align=left;fillColor=#7EA6E0;fontStyle=1;fontSize=15;" parent="1" vertex="1">
          <mxGeometry x="880" y="890" width="480" height="100" as="geometry" />
        </mxCell>
        <mxCell id="PAZ-sfUF36BO0aC9PB7X-9" value="NAT gateway" style="outlineConnect=0;fontColor=#232F3E;strokeColor=#232F3E;fillColor=#ffffff;dashed=0;verticalLabelPosition=bottom;verticalAlign=top;align=center;html=1;fontSize=15;fontStyle=1;aspect=fixed;shape=mxgraph.aws4.resourceIcon;resIcon=mxgraph.aws4.nat_gateway;" parent="1" vertex="1">
          <mxGeometry x="970" y="900.01" width="60" height="60" as="geometry" />
        </mxCell>
        <mxCell id="PAZ-sfUF36BO0aC9PB7X-13" value="" style="shape=doubleArrow;whiteSpace=wrap;html=1;strokeColor=#AC49D0;fillColor=#F19C99;direction=south;fontStyle=1;fontSize=15;" parent="1" vertex="1">
          <mxGeometry x="1053.755" y="859.005" width="23.25" height="41" as="geometry" />
        </mxCell>
        <mxCell id="PAZ-sfUF36BO0aC9PB7X-15" value="NAT gateway" style="outlineConnect=0;fontColor=#232F3E;strokeColor=#232F3E;fillColor=#ffffff;dashed=0;verticalLabelPosition=bottom;verticalAlign=top;align=center;html=1;fontSize=15;fontStyle=1;aspect=fixed;shape=mxgraph.aws4.resourceIcon;resIcon=mxgraph.aws4.nat_gateway;" parent="1" vertex="1">
          <mxGeometry x="1180" y="900.01" width="60" height="60" as="geometry" />
        </mxCell>
        <mxCell id="PAZ-sfUF36BO0aC9PB7X-16" value="第三方接口服务（支付、登录、发短信码、发邮件等）" style="ellipse;whiteSpace=wrap;html=1;align=center;verticalAlign=middle;fillColor=#f8cecc;strokeColor=#b85450;fontStyle=1;fontSize=15;" parent="1" vertex="1">
          <mxGeometry x="1257" y="1150" width="433" height="80" as="geometry" />
        </mxCell>
        <mxCell id="PAZ-sfUF36BO0aC9PB7X-20" value="" style="shape=doubleArrow;whiteSpace=wrap;html=1;strokeColor=#AC49D0;fillColor=#F19C99;direction=south;fontStyle=1;fontSize=15;" parent="1" vertex="1">
          <mxGeometry x="1136.9950000000001" y="859.015" width="23.25" height="41" as="geometry" />
        </mxCell>
        <mxCell id="PAZ-sfUF36BO0aC9PB7X-22" value="NAS" style="pointerEvents=1;shadow=0;dashed=0;html=1;strokeColor=none;fillColor=#DF8C42;labelPosition=center;verticalLabelPosition=bottom;verticalAlign=top;align=center;outlineConnect=0;shape=mxgraph.veeam2.nas_backup;fontStyle=1;fontSize=15;" parent="1" vertex="1">
          <mxGeometry x="1464" y="890" width="52" height="53.99" as="geometry" />
        </mxCell>
        <mxCell id="PAZ-sfUF36BO0aC9PB7X-25" value="" style="shape=doubleArrow;whiteSpace=wrap;html=1;strokeColor=#AC49D0;fillColor=#F19C99;fontStyle=1;fontSize=15;" parent="1" vertex="1">
          <mxGeometry x="786" y="689" width="120" height="23.25" as="geometry" />
        </mxCell>
        <mxCell id="PAZ-sfUF36BO0aC9PB7X-26" value="" style="shape=doubleArrow;whiteSpace=wrap;html=1;strokeColor=#AC49D0;fillColor=#F19C99;fontStyle=1;fontSize=15;" parent="1" vertex="1">
          <mxGeometry x="786" y="575.75" width="120" height="23.25" as="geometry" />
        </mxCell>
        <mxCell id="PAZ-sfUF36BO0aC9PB7X-28" value="&lt;font style=&quot;font-size: 30px&quot;&gt;海外&lt;/font&gt;" style="whiteSpace=wrap;html=1;gradientColor=none;align=center;fontStyle=1;strokeColor=none;fillColor=none;fontSize=15;" parent="1" vertex="1">
          <mxGeometry x="90" y="110" width="1550" height="50" as="geometry" />
        </mxCell>
        <mxCell id="p6RBwhQNt-7Z39dhlTQw-69" value="无锡机房" style="points=[[0,0],[0.25,0],[0.5,0],[0.75,0],[1,0],[1,0.25],[1,0.5],[1,0.75],[1,1],[0.75,1],[0.5,1],[0.25,1],[0,1],[0,0.75],[0,0.5],[0,0.25]];outlineConnect=0;html=1;whiteSpace=wrap;fontSize=15;fontStyle=1;shape=mxgraph.aws4.group;grIcon=mxgraph.aws4.group_vpc;strokeColor=#82b366;fillColor=#d5e8d4;verticalAlign=top;align=left;spacingLeft=30;dashed=0;labelBackgroundColor=none;" parent="1" vertex="1">
          <mxGeometry x="917" y="1440" width="406" height="230" as="geometry" />
        </mxCell>
        <mxCell id="p6RBwhQNt-7Z39dhlTQw-70" value="数据中心" style="rounded=0;whiteSpace=wrap;html=1;opacity=50;fillColor=#dae8fc;strokeColor=#6c8ebf;fontStyle=1;fontSize=15;" parent="1" vertex="1">
          <mxGeometry x="1047" y="1510" width="160" height="100" as="geometry" />
        </mxCell>
        <mxCell id="8cuVBeNiY9Bw5ADYlNcY-2" style="edgeStyle=orthogonalEdgeStyle;rounded=0;orthogonalLoop=1;jettySize=auto;html=1;strokeWidth=5;fontStyle=1;fontSize=15;" edge="1" parent="1" source="p6RBwhQNt-7Z39dhlTQw-77" target="wtm1ySMwc9PC7Cmq1RKc-23">
          <mxGeometry relative="1" as="geometry" />
        </mxCell>
        <mxCell id="p6RBwhQNt-7Z39dhlTQw-77" value="手游-云服务" style="points=[[0,0],[0.25,0],[0.5,0],[0.75,0],[1,0],[1,0.25],[1,0.5],[1,0.75],[1,1],[0.75,1],[0.5,1],[0.25,1],[0,1],[0,0.75],[0,0.5],[0,0.25]];outlineConnect=0;html=1;whiteSpace=wrap;fontSize=15;fontStyle=1;shape=mxgraph.aws4.group;grIcon=mxgraph.aws4.group_vpc;strokeColor=#82b366;fillColor=#d5e8d4;verticalAlign=top;align=left;spacingLeft=30;dashed=0;labelBackgroundColor=none;" parent="1" vertex="1">
          <mxGeometry x="460" y="200" width="1120" height="100" as="geometry" />
        </mxCell>
        <mxCell id="p6RBwhQNt-7Z39dhlTQw-3" value="Gate" style="rounded=0;whiteSpace=wrap;html=1;glass=0;sketch=0;shadow=0;fillColor=#dae8fc;strokeColor=#6c8ebf;fontStyle=1;fontSize=15;" parent="1" vertex="1">
          <mxGeometry x="690" y="220" width="120" height="60" as="geometry" />
        </mxCell>
        <mxCell id="p6RBwhQNt-7Z39dhlTQw-4" value="术语人" style="rounded=0;whiteSpace=wrap;html=1;fillColor=#dae8fc;strokeColor=#6c8ebf;fontStyle=1;fontSize=15;" parent="1" vertex="1">
          <mxGeometry x="970" y="220" width="120" height="60" as="geometry" />
        </mxCell>
        <mxCell id="8cuVBeNiY9Bw5ADYlNcY-4" style="edgeStyle=orthogonalEdgeStyle;rounded=0;orthogonalLoop=1;jettySize=auto;html=1;strokeWidth=5;fontStyle=1;fontSize=15;" edge="1" parent="1" source="p6RBwhQNt-7Z39dhlTQw-82" target="p6RBwhQNt-7Z39dhlTQw-69">
          <mxGeometry relative="1" as="geometry" />
        </mxCell>
        <mxCell id="p6RBwhQNt-7Z39dhlTQw-82" value="公司内部人员" style="shape=image;verticalLabelPosition=bottom;labelBackgroundColor=#ffffff;verticalAlign=top;aspect=fixed;imageAspect=0;image=data:image/svg+xml,PHN2ZyB4bWxuczpjYz0iaHR0cDovL2NyZWF0aXZlY29tbW9ucy5vcmcvbnMjIiB4bWxuczpkYz0iaHR0cDovL3B1cmwub3JnL2RjL2VsZW1lbnRzLzEuMS8iIHhtbG5zOmlua3NjYXBlPSJodHRwOi8vd3d3Lmlua3NjYXBlLm9yZy9uYW1lc3BhY2VzL2lua3NjYXBlIiB4bWxuczpyZGY9Imh0dHA6Ly93d3cudzMub3JnLzE5OTkvMDIvMjItcmRmLXN5bnRheC1ucyMiIHhtbG5zOnNvZGlwb2RpPSJodHRwOi8vc29kaXBvZGkuc291cmNlZm9yZ2UubmV0L0RURC9zb2RpcG9kaS0wLmR0ZCIgeG1sbnM6c3ZnPSJodHRwOi8vd3d3LnczLm9yZy8yMDAwL3N2ZyIgeG1sbnM9Imh0dHA6Ly93d3cudzMub3JnLzIwMDAvc3ZnIiB4bWxuczp4bGluaz0iaHR0cDovL3d3dy53My5vcmcvMTk5OS94bGluayIgdmVyc2lvbj0iMS4xIiBpZD0ic3ZnNTc1ODIiIGlua3NjYXBlOnZlcnNpb249IjAuOTIuMyAoMjQwNTU0NiwgMjAxOC0wMy0xMSkiIHNvZGlwb2RpOmRvY25hbWU9ImFmZmlsaWF0ZV9wdWJsaXNoZXIuc3ZnIiB4PSIwcHgiIHk9IjBweCIgdmlld0JveD0iMCAwIDgwLjE5IDc0LjE0IiBzdHlsZT0iZW5hYmxlLWJhY2tncm91bmQ6bmV3IDAgMCA4MC4xOSA3NC4xNDsiIHhtbDpzcGFjZT0icHJlc2VydmUiPiYjeGE7PHNvZGlwb2RpOm5hbWVkdmlldyBib3JkZXJjb2xvcj0iIzY2NjY2NiIgYm9yZGVyb3BhY2l0eT0iMSIgZml0LW1hcmdpbi1ib3R0b209IjAiIGZpdC1tYXJnaW4tbGVmdD0iMCIgZml0LW1hcmdpbi1yaWdodD0iMCIgZml0LW1hcmdpbi10b3A9IjAiIGdyaWR0b2xlcmFuY2U9IjEwIiBndWlkZXRvbGVyYW5jZT0iMTAiIGlkPSJuYW1lZHZpZXc1NzU4NCIgaW5rc2NhcGU6Y3VycmVudC1sYXllcj0ic3ZnNTc1ODIiIGlua3NjYXBlOmN4PSI1My40NjI0MDIiIGlua3NjYXBlOmN5PSI0OS40Mjg5NTEiIGlua3NjYXBlOnBhZ2VvcGFjaXR5PSIwIiBpbmtzY2FwZTpwYWdlc2hhZG93PSIyIiBpbmtzY2FwZTp3aW5kb3ctaGVpZ2h0PSIxMDE3IiBpbmtzY2FwZTp3aW5kb3ctbWF4aW1pemVkPSIxIiBpbmtzY2FwZTp3aW5kb3ctd2lkdGg9IjE5MjAiIGlua3NjYXBlOndpbmRvdy14PSItOCIgaW5rc2NhcGU6d2luZG93LXk9Ii04IiBpbmtzY2FwZTp6b29tPSI4Ljc3MTAxNCIgb2JqZWN0dG9sZXJhbmNlPSIxMCIgcGFnZWNvbG9yPSIjZmZmZmZmIiBzaG93Z3JpZD0iZmFsc2UiPiYjeGE7CTwvc29kaXBvZGk6bmFtZWR2aWV3PiYjeGE7PGcgaWQ9Imc1NzU4MCIgdHJhbnNmb3JtPSJ0cmFuc2xhdGUoMCwtMS4wNzA0NzU3ZS00KSI+JiN4YTsJPHRpdGxlIGlkPSJ0aXRsZTU3NTczIj5QYWdlLTE8L3RpdGxlPiYjeGE7CTxnIGlkPSJzaGFwZTU0ODUtMSI+JiN4YTsJCTx0aXRsZSBpZD0idGl0bGU1NzU3NSI+QWZmaWxpYXRlIFB1Ymxpc2hlcjwvdGl0bGU+JiN4YTsJCTxwYXRoIGlkPSJwYXRoNTc1NzciIGlua3NjYXBlOmNvbm5lY3Rvci1jdXJ2YXR1cmU9IjAiIHN0eWxlPSJmaWxsOiMzRjU3NjU7IiBkPSJNNjIuMzMsMjAuMTRjMCwwLDAuMTEsMCwxMy44NSwwICAgIGMyLjIyLDAsNC4wMSwxLjk2LDQuMDEsNC4zM2MwLDAsMCwwLjE1LDAsMjAuNDFjMCwyLjM3LTEuNzksNC4zMy00LjAxLDQuMzNjMCwwLDAsMC4xMSwwLDE0LjU1YzAsMi4zNy0xLjgsNC4zMy00LjAyLDQuMzMgICAgYzAsMC0wLjA0LDAtNi4wMSwwYy0yLjAzLDAtMy44Mi0xLjk2LTMuODItNC4zM2MwLDAsMC0wLjEyLDAtMTQuNTVjLTIuMjIsMC00LjAyLTEuOTYtNC4wMi00LjMzYzAsMCwwLTAuMTUsMC0yMC40MSAgICBDNTguMzEsMjIuMSw2MC4xMSwyMC4xNCw2Mi4zMywyMC4xNHogTTQuMDIsMjAuMTRjMCwwLDAuMDcsMCwxMy44MSwwYzIuMTgsMCwzLjk4LDEuOTYsMy45OCw0LjMzYzAsMCwwLDAuMDgsMCwyMC40MSAgICBjMCwyLjM3LTEuOCw0LjMzLTMuOTgsNC4zM2MwLDAsMCwwLjA3LDAsMTQuNTVjMCwyLjM3LTEuOCw0LjMzLTMuNzksNC4zM2MwLDAtMC4wNywwLTYuMDEsMGMtMi4yMSwwLTQuMDEtMS45Ni00LjAxLTQuMzMgICAgYzAsMCwwLTAuMDgsMC0xNC41NUMxLjg0LDQ5LjIxLDAsNDcuMjUsMCw0NC44OGMwLDAsMC0wLjA4LDAtMjAuNDFDMCwyMi4xLDEuODQsMjAuMTQsNC4wMiwyMC4xNHogTTMyLjA2LDE4LjE5ICAgIGMwLDAsMC4xNiwwLDE2LjA3LDBjMi42NCwwLDQuODIsMi40MSw0LjgyLDUuMjFjMCwwLDAsMC4xNSwwLDIzLjY2YzAsMi44LTIuMTgsNS4yMS00LjgyLDUuMjFjMCwwLDAsMC4xMiwwLDE2LjcgICAgYzAsMi43OS0xLjk5LDUuMTctNC41OSw1LjE3YzAsMC0wLjA4LDAtNi44NSwwYy0yLjYsMC00LjYzLTIuMzgtNC42My01LjE3YzAsMCwwLTAuMTYsMC0xNi43Yy0yLjYsMC00LjgyLTIuNDEtNC44Mi01LjIxICAgIGMwLDAsMC0wLjE1LDAtMjMuNjZDMjcuMjQsMjAuNiwyOS40NiwxOC4xOSwzMi4wNiwxOC4xOXogTTY5LjI1LDQuNTJjMy42NCwwLDYuNTQsMy4yMiw2LjU0LDcuMTZzLTIuOSw3LjE2LTYuNTQsNy4xNiAgICBjLTMuNiwwLTYuNS0zLjIyLTYuNS03LjE2UzY1LjY1LDQuNTIsNjkuMjUsNC41MnogTTEwLjksNC41MmMzLjYsMCw2LjUxLDMuMjIsNi41MSw3LjE2cy0yLjkxLDcuMTYtNi41MSw3LjE2ICAgIGMtMy41NSwwLTYuNDYtMy4yMi02LjQ2LTcuMTZTNy4zNSw0LjUyLDEwLjksNC41MnogTTQwLjA2LDBjNC4yNSwwLDcuNjUsMy43NSw3LjY1LDguMzVjMCw0LjU1LTMuNCw4LjMxLTcuNjUsOC4zMSAgICBjLTQuMjEsMC03LjYyLTMuNzYtNy42Mi04LjMxQzMyLjQ0LDMuNzUsMzUuODUsMCw0MC4wNiwweiIvPiYjeGE7CTwvZz4mI3hhOzwvZz4mI3hhOzwvc3ZnPg==;fontStyle=1;fontSize=15;" parent="1" vertex="1">
          <mxGeometry x="65" y="1518" width="80" height="74" as="geometry" />
        </mxCell>
        <mxCell id="p6RBwhQNt-7Z39dhlTQw-94" value="" style="shape=link;html=1;opacity=50;fontStyle=1;fontColor=#FF6666;fillColor=#6a00ff;strokeColor=#3700CC;labelBackgroundColor=#99FFCC;fontSize=15;" parent="1" edge="1">
          <mxGeometry width="100" relative="1" as="geometry">
            <mxPoint x="30" y="1248" as="sourcePoint" />
            <mxPoint x="1740" y="1248" as="targetPoint" />
          </mxGeometry>
        </mxCell>
        <mxCell id="8cuVBeNiY9Bw5ADYlNcY-6" value="&lt;font style=&quot;font-size: 30px;&quot;&gt;国内&lt;/font&gt;" style="whiteSpace=wrap;html=1;gradientColor=none;align=center;fontStyle=1;strokeColor=none;fillColor=none;fontSize=30;" vertex="1" parent="1">
          <mxGeometry x="100" y="1280" width="1550" height="50" as="geometry" />
        </mxCell>
        <mxCell id="8cuVBeNiY9Bw5ADYlNcY-13" value="其他手游" style="rounded=0;whiteSpace=wrap;html=1;fillColor=#dae8fc;strokeColor=#6c8ebf;fontStyle=1;fontSize=15;" vertex="1" parent="1">
          <mxGeometry x="1223" y="220" width="120" height="60" as="geometry" />
        </mxCell>
      </root>
    </mxGraphModel>
  </diagram>
</mxfile>
